<!-- Created by Apktool M – https://maximoff.su/apktool -->
<svg
	xmlns="http://www.w3.org/2000/svg"
	xmlns:xlink="http://www.w3.org/1999/xlink"
	version="1.1"
	width="48.0"
	height="48.0"
	viewBox="0 0 512.0 512.0">
	<path
		stroke="none"
		d="M0,0h512zM0,1h512zM0,2h512zM0,3h512zM0,4h512zM0,5h512zM0,6h512zM0,7h512zM0,8h512zM0,9h512zM0,10h512zM0,11h512zM0,12h512zM0,13h512zM0,14h512zM0,15h512zM0,16h512zM0,17h512zM0,18h512zM0,19h512zM0,20h512zM0,21h512zM0,22h512zM0,23h512zM0,24h512zM0,25h512zM0,26h512zM0,27h512zM0,28h512zM0,29h512zM0,30h512zM0,31h512zM0,32h512zM0,33h512zM0,34h512zM0,35h512zM0,36h512zM0,37h512zM0,38h512zM0,39h512zM0,40h512zM0,41h512zM0,42h512zM0,43h512zM0,44h512zM0,45h512zM0,46h512zM0,47h512zM0,48h512zM0,49h512zM0,50h512zM0,51h512zM0,52h512zM0,53h512zM0,54h512zM0,55h512zM0,56h512zM0,57h512zM0,58h512zM0,59h512zM0,60h512zM0,61h512zM0,62h512zM0,63h512zM0,64h512zM0,65h512zM0,66h512zM0,67h512zM0,68h512zM0,69h512zM0,70h512zM0,71h512zM0,72h512zM0,73h512zM0,74h512zM0,75h512zM0,76h512zM0,77h512zM199,78h313zM211,79h301zM222,80h290zM226,81h286zM230,82h282zM233,83h279zM238,84h274zM241,85h271zM243,86h269zM245,87h267zM249,88h263zM251,89h261zM253,90h259zM255,91h257zM257,92h255zM259,93h253zM260,94h252zM262,95h250zM264,96h248zM265,97h247zM267,98h245zM268,99h244zM270,100h242zM271,101h241zM272,102h240zM272,103h240zM274,104h238zM275,105h237zM276,106h236zM276,107h236zM277,108h235zM278,109h234zM279,110h233zM280,111h232zM280,112h232zM281,113h231zM281,114h231zM282,115h230zM283,116h229zM283,117h229zM284,118h228zM284,119h228zM284,120h228zM284,121h228zM284,122h228zM284,123h228zM285,124h227zM285,125h227zM285,126h227zM285,127h227zM285,128h227zM285,129h227zM285,130h227zM285,131h227zM285,132h227zM285,133h227zM285,134h227zM284,135h228zM284,136h228zM284,137h228zM284,138h228zM284,139h228zM284,140h228zM283,141h229zM283,142h229zM282,143h230zM281,144h231zM281,145h231zM280,146h232zM280,147h232zM279,148h233zM278,149h234zM278,150h234zM277,151h235zM276,152h236zM275,153h237zM274,154h238zM273,155h239zM272,156h240zM271,157h241zM270,158h242zM269,159h243zM267,160h245zM265,161h247zM264,162h248zM263,163h249zM260,164h252zM258,165h254zM256,166h256zM254,167h258zM248,168h264zM136,169h376zM431,170h81zM438,171h74zM446,172h66zM450,173h62zM452,174h60zM455,175h57zM459,176h53zM462,177h50zM464,178h48zM466,179h46zM468,180h44zM470,181h42zM472,182h40zM473,183h39zM475,184h37zM476,185h36zM478,186h34zM479,187h33zM481,188h31zM482,189h30zM483,190h29zM484,191h28zM485,192h27zM486,193h26zM487,194h25zM488,195h24zM489,196h23zM490,197h22zM491,198h21zM491,199h21zM492,200h20zM493,201h19zM493,202h19zM494,203h18zM495,204h17zM495,205h17zM496,206h16zM496,207h16zM497,208h15zM497,209h15zM498,210h14zM498,211h14zM499,212h13zM499,213h13zM500,214h12zM500,215h12zM500,216h12zM501,217h11zM501,218h11zM501,219h11zM502,220h10zM502,221h10zM502,222h10zM503,223h9zM503,224h9zM503,225h9zM503,226h9zM504,227h8zM504,228h8zM504,229h8zM504,230h8zM504,231h8zM504,232h8zM504,233h8zM504,234h8zM504,235h8zM504,236h8zM504,237h8zM504,238h8zM504,239h8zM504,240h8zM504,241h8zM504,242h8zM504,243h8zM504,244h8zM504,245h8zM504,246h8zM504,247h8zM504,248h8zM504,249h8zM504,250h8zM504,251h8zM504,252h8zM504,253h8zM504,254h8zM503,255h9zM503,256h9zM503,257h9zM503,258h9zM503,259h9zM502,260h10zM502,261h10zM502,262h10zM502,263h10zM501,264h11zM501,265h11zM501,266h11zM500,267h12zM500,268h12zM500,269h12zM500,270h12zM500,271h12zM500,272h12zM499,273h13zM499,274h13zM499,275h13zM498,276h14zM498,277h14zM498,278h14zM498,279h14zM497,280h15zM497,281h15zM497,282h15zM496,283h16zM496,284h16zM496,285h16zM496,286h16zM496,287h16zM496,288h16zM495,289h17zM495,290h17zM495,291h17zM494,292h18zM494,293h18zM494,294h18zM494,295h18zM493,296h19zM493,297h19zM493,298h19zM492,299h20zM492,300h20zM492,301h20zM492,302h20zM492,303h20zM492,304h20zM491,305h21zM491,306h21zM491,307h21zM490,308h22zM490,309h22zM490,310h22zM490,311h22zM489,312h23zM489,313h23zM489,314h23zM488,315h24zM488,316h24zM488,317h24zM488,318h24zM488,319h24zM488,320h24zM487,321h25zM487,322h25zM487,323h25zM486,324h26zM486,325h26zM486,326h26zM486,327h26zM485,328h27zM485,329h27zM485,330h27zM484,331h28zM484,332h28zM484,333h28zM484,334h28zM484,335h28zM483,336h29zM483,337h29zM483,338h29zM482,339h30zM482,340h30zM482,341h30zM481,342h31zM481,343h31zM480,344h32zM480,345h32zM480,346h32zM480,347h32zM479,348h33zM479,349h33zM478,350h34zM478,351h34zM477,352h35zM476,353h36zM476,354h36zM476,355h36zM475,356h37zM475,357h37zM474,358h38zM474,359h38zM473,360h39zM472,361h40zM472,362h40zM471,363h41zM471,364h41zM470,365h42zM469,366h43zM469,367h43zM468,368h44zM468,369h44zM467,370h45zM466,371h46zM465,372h47zM464,373h48zM464,374h48zM463,375h49zM462,376h50zM461,377h51zM460,378h52zM460,379h52zM458,380h54zM458,381h54zM457,382h55zM456,383h56zM455,384h57zM454,385h58zM453,386h59zM452,387h60zM450,388h62zM449,389h63zM448,390h64zM447,391h65zM446,392h66zM445,393h67zM444,394h68zM443,395h69zM440,396h72zM440,397h72zM438,398h74zM437,399h75zM435,400h77zM433,401h79zM432,402h80zM431,403h81zM428,404h84zM427,405h85zM425,406h87zM423,407h89zM420,408h92zM419,409h93zM416,410h96zM415,411h97zM411,412h101zM409,413h103zM407,414h105zM404,415h108zM399,416h113zM396,417h116zM392,418h120zM389,419h123zM380,420h132zM373,421h139zM359,422h153zM0,423h512zM0,424h512zM0,425h512zM0,426h512zM0,427h512zM0,428h512zM0,429h512zM0,430h512zM0,431h512zM0,432h512zM0,433h512zM0,434h512zM0,435h512zM0,436h512zM0,437h512zM0,438h512zM0,439h512zM0,440h512zM0,441h512zM0,442h512zM0,443h512zM0,444h512zM0,445h512zM0,446h512zM0,447h512zM0,448h512zM0,449h512zM0,450h512zM0,451h512zM0,452h512zM0,453h512zM0,454h512zM0,455h512zM0,456h512zM0,457h512zM0,458h512zM0,459h512zM0,460h512zM0,461h512zM0,462h512zM0,463h512zM0,464h512zM0,465h512zM0,466h512zM0,467h512zM0,468h512zM0,469h512zM0,470h512zM0,471h512zM0,472h512zM0,473h512zM0,474h512zM0,475h512zM0,476h512zM0,477h512zM0,478h512zM0,479h512zM0,480h512zM0,481h512zM0,482h512zM0,483h512zM0,484h512zM0,485h512zM0,486h512zM0,487h512zM0,488h512zM0,489h512zM0,490h512zM0,491h512zM0,492h512zM0,493h512zM0,494h512zM0,495h512zM0,496h512zM0,497h512zM0,498h512zM0,499h512zM0,500h512zM0,501h512zM0,502h512zM0,503h512zM0,504h512zM0,505h512zM0,506h512zM0,507h512zM0,508h512zM0,509h512zM0,510h512zM0,511h512zM127,422h227zM135,421h205zM141,420h193zM150,419h176zM155,418h168zM158,417h162zM161,416h156zM167,415h146zM170,414h141zM172,413h137zM175,412h133zM180,411h124zM182,410h121zM184,409h117zM186,408h114zM190,407h107zM192,406h104zM193,405h102zM195,404h99zM198,403h94zM199,402h92zM200,401h90zM202,400h87zM204,399h84zM206,398h81zM207,397h79zM208,396h77zM211,395h73zM212,394h71zM213,393h69zM214,392h68zM216,391h65zM217,390h63zM218,389h62zM219,388h60zM220,387h58zM221,386h56zM222,385h55zM223,384h53zM224,383h52zM225,382h51zM225,381h50zM226,380h49zM228,379h46zM228,378h46zM228,377h45zM229,376h44zM230,375h42zM231,374h41zM232,373h40zM232,372h40zM232,371h40zM233,370h38zM234,369h37zM234,368h37zM235,367h35zM235,366h35zM236,365h34zM236,364h34zM236,363h33zM237,362h32zM237,361h32zM237,360h32zM238,359h31zM238,358h31zM239,357h30zM239,356h29zM239,355h29zM239,354h29zM240,353h28zM240,352h28zM240,351h28zM240,350h28zM240,349h28zM240,348h28zM241,347h27zM241,346h27zM241,345h28zM242,344h27zM242,343h27zM242,342h27zM243,341h26zM243,340h26zM243,339h26zM243,338h26zM244,337h26zM244,336h26zM244,335h26zM244,334h26zM244,333h26zM244,332h27zM245,331h26zM245,330h26zM245,329h26zM246,328h26zM246,327h26zM246,326h26zM247,325h25zM247,324h25zM247,323h25zM247,322h26zM248,321h25zM248,320h25zM248,319h26zM248,318h26zM248,317h26zM248,316h27zM249,315h26zM249,314h26zM249,313h26zM250,312h26zM250,311h26zM250,310h26zM251,309h25zM251,308h25zM251,307h25zM251,306h26zM252,305h25zM252,304h25zM252,303h26zM252,302h26zM252,301h26zM252,300h27zM253,299h26zM253,298h26zM253,297h26zM254,296h26zM254,295h26zM254,294h26zM255,293h25zM255,292h25zM255,291h26zM255,290h26zM256,289h25zM256,288h25zM256,287h26zM256,286h26zM256,285h26zM256,284h27zM257,283h26zM257,282h26zM257,281h26zM258,280h26zM258,279h26zM258,278h26zM259,277h25zM259,276h25zM259,275h26zM259,274h26zM260,273h25zM260,272h25zM260,271h26zM260,270h26zM260,269h26zM260,268h27zM261,267h26zM261,266h26zM261,265h26zM262,264h26zM262,263h26zM262,262h26zM263,261h25zM263,260h25zM263,259h26zM263,258h26zM264,257h25zM264,256h25zM264,255h26zM264,254h26zM264,253h26zM264,252h27zM264,251h27zM264,250h28zM265,249h27zM265,248h27zM265,247h27zM265,246h28zM265,245h28zM265,244h29zM265,243h29zM265,242h29zM265,241h30zM265,240h31zM264,239h32zM264,238h32zM264,237h33zM264,236h33zM264,235h34zM264,234h34zM263,233h36zM263,232h37zM262,231h38zM262,230h39zM261,229h40zM260,228h42zM260,227h43zM259,226h44zM258,225h46zM257,224h47zM256,223h49zM255,222h51zM254,221h53zM252,220h55zM250,219h58zM248,218h61zM247,217h62zM244,216h66zM240,215h72zM235,214h77zM118,213h195zM119,212h194zM119,211h196zM119,210h197zM120,209h196zM120,208h197zM120,207h199zM120,206h200zM120,205h200zM120,204h201zM121,203h202zM121,202h203zM121,201h204zM122,200h204zM122,199h206zM122,198h206zM123,197h206zM123,196h208zM123,195h209zM124,194h210zM124,193h211zM124,192h212zM124,191h214zM125,190h215zM125,189h216zM126,188h217zM126,187h219zM127,186h220zM127,185h221zM128,184h222zM128,183h225zM128,182h227zM129,181h227zM129,180h230zM130,179h232zM131,178h233zM131,177h236zM132,176h237zM132,175h242zM133,174h244zM133,173h248zM134,172h251zM135,171h259zM136,170h265zM118,214h54zM118,215h50zM117,216h47zM117,217h44zM117,218h43zM117,219h41zM116,220h40zM116,221h38zM116,222h37zM116,223h36zM116,224h34zM116,225h33zM115,226h33zM115,227h32zM115,228h31zM114,229h31zM114,230h30zM114,231h29zM113,232h29zM113,233h28zM113,234h28zM113,235h27zM112,236h27zM112,237h27zM112,238h26zM112,239h26zM112,240h25zM112,241h24zM111,242h25zM111,243h25zM111,244h25zM110,245h25zM110,246h25zM110,247h25zM109,248h25zM109,249h25zM109,250h25zM109,251h25zM108,252h25zM108,253h25zM108,254h25zM108,255h25zM108,256h25zM108,257h25zM107,258h26zM107,259h26zM107,260h27zM106,261h28zM106,262h28zM106,263h28zM105,264h30zM105,265h30zM105,266h30zM105,267h31zM104,268h32zM104,269h32zM104,270h33zM104,271h33zM104,272h34zM104,273h35zM103,274h36zM103,275h37zM103,276h38zM102,277h40zM102,278h41zM102,279h42zM101,280h45zM101,281h46zM101,282h47zM101,283h49zM100,284h53zM100,285h56zM100,286h77zM100,287h77zM100,288h76zM100,289h76zM99,290h77zM99,291h77zM99,292h77zM98,293h78zM98,294h77zM98,295h77zM97,296h78zM97,297h77zM97,298h77zM97,299h77zM96,300h78zM96,301h77zM96,302h77zM96,303h77zM96,304h76zM96,305h76zM96,306h76zM95,307h77zM95,308h77zM95,309h77zM95,310h76zM94,311h77zM94,312h77zM94,313h76zM94,314h76zM94,315h76zM94,316h76zM93,317h76zM93,318h76zM93,319h76zM93,320h75zM93,321h75zM93,322h75zM93,323h75zM93,324h75zM93,325h75zM93,326h74zM93,327h74zM93,328h74zM93,329h73zM94,330h72zM94,331h72zM94,332h72zM94,333h71zM95,334h70zM95,335h70zM95,336h69zM96,337h68zM96,338h68zM96,339h68zM97,340h67zM98,341h66zM99,342h64zM100,343h63zM101,344h62zM102,345h59zM103,346h56zM104,347h53zM107,348h46zM110,349h39zM112,350h34zM116,351h26zM0,422h98zM0,421h91zM0,420h85zM0,419h77zM0,418h74zM0,417h71zM0,416h68zM0,415h64zM0,414h61zM0,413h60zM0,412h58zM0,411h55zM0,410h53zM0,409h52zM0,408h50zM0,407h48zM0,406h46zM0,405h45zM0,404h44zM0,403h42zM0,402h41zM0,401h40zM0,400h39zM0,399h37zM0,398h36zM0,397h36zM0,396h35zM0,395h33zM0,394h32zM0,393h32zM0,392h31zM0,391h30zM0,390h29zM0,389h28zM0,388h28zM0,387h27zM0,386h27zM0,385h26zM0,384h25zM0,383h24zM0,382h24zM0,381h24zM0,380h23zM0,379h22zM0,378h22zM0,377h21zM0,376h21zM0,375h20zM0,374h20zM0,373h20zM0,372h20zM0,371h19zM0,370h19zM0,369h18zM0,368h18zM0,367h17zM0,366h17zM0,365h17zM0,364h17zM0,363h16zM0,362h16zM0,361h16zM0,360h16zM0,359h16zM0,358h16zM0,357h15zM0,356h15zM0,355h15zM0,354h15zM0,353h15zM0,352h14zM0,351h14zM0,350h14zM0,349h14zM0,348h14zM0,347h14zM0,346h13zM0,345h13zM0,344h13zM0,343h13zM0,342h13zM0,341h13zM0,340h13zM0,339h13zM0,338h13zM0,337h13zM0,336h13zM0,335h13zM0,334h13zM0,333h13zM0,332h13zM0,331h13zM0,330h13zM0,329h13zM0,328h13zM0,327h13zM0,326h13zM0,325h13zM0,324h13zM0,323h14zM0,322h14zM0,321h14zM0,320h14zM0,319h14zM0,318h14zM0,317h14zM0,316h14zM0,315h15zM0,314h15zM0,313h15zM0,312h15zM0,311h15zM0,310h16zM0,309h16zM0,308h16zM0,307h16zM0,306h16zM0,305h16zM0,304h16zM0,303h16zM0,302h17zM0,301h17zM0,300h17zM0,299h17zM0,298h18zM0,297h18zM0,296h18zM0,295h18zM0,294h19zM0,293h19zM0,292h19zM0,291h20zM0,290h20zM0,289h20zM0,288h20zM0,287h20zM0,286h20zM0,285h21zM0,284h21zM0,283h21zM0,282h21zM0,281h22zM0,280h22zM0,279h22zM0,278h23zM0,277h23zM0,276h23zM0,275h24zM0,274h24zM0,273h24zM0,272h24zM0,271h24zM0,270h24zM0,269h25zM0,268h25zM0,267h25zM0,266h25zM0,265h26zM0,264h26zM0,263h26zM0,262h27zM0,261h27zM0,260h27zM0,259h28zM0,258h28zM0,257h28zM0,256h28zM0,255h28zM0,254h28zM0,253h29zM0,252h29zM0,251h29zM0,250h29zM0,249h30zM0,248h30zM0,247h30zM0,246h31zM0,245h31zM0,244h31zM0,243h32zM0,242h32zM0,241h32zM0,240h32zM0,239h32zM0,238h32zM0,237h33zM0,236h33zM0,235h33zM0,234h33zM0,233h34zM0,232h34zM0,231h34zM0,230h35zM0,229h35zM0,228h35zM0,227h36zM0,226h36zM0,225h36zM0,224h36zM0,223h36zM0,222h36zM0,221h37zM0,220h37zM0,219h37zM0,218h37zM0,217h38zM0,216h38zM0,215h38zM0,214h39zM0,213h39zM0,212h39zM0,211h40zM0,210h40zM0,209h40zM0,208h40zM0,207h40zM0,206h40zM0,205h41zM0,204h41zM0,203h41zM0,202h41zM0,201h42zM0,200h42zM0,199h42zM0,198h43zM0,197h43zM0,196h43zM0,195h44zM0,194h44zM0,193h44zM0,192h44zM0,191h44zM0,190h45zM0,189h45zM0,188h45zM0,187h46zM0,186h46zM0,185h47zM0,184h47zM0,183h48zM0,182h48zM0,181h48zM0,180h48zM0,179h49zM0,178h49zM0,177h49zM0,176h50zM0,175h50zM0,174h51zM0,173h51zM0,172h52zM0,171h52zM0,170h52zM0,169h52zM0,168h53zM0,167h54zM0,166h54zM0,165h55zM0,164h55zM0,163h56zM0,162h56zM0,161h56zM0,160h57zM0,159h58zM0,158h58zM0,157h59zM0,156h59zM0,155h60zM0,154h60zM0,153h61zM0,152h61zM0,151h62zM0,150h63zM0,149h63zM0,148h64zM0,147h64zM0,146h65zM0,145h65zM0,144h66zM0,143h67zM0,142h68zM0,141h68zM0,140h69zM0,139h70zM0,138h71zM0,137h71zM0,136h72zM0,135h73zM0,134h73zM0,133h74zM0,132h75zM0,131h76zM0,130h76zM0,129h77zM0,128h78zM0,127h80zM0,126h80zM0,125h81zM0,124h82zM0,123h83zM0,122h84zM0,121h84zM0,120h85zM0,119h87zM0,118h88zM0,117h88zM0,116h90zM0,115h91zM0,114h92zM0,113h93zM0,112h94zM0,111h96zM0,110h97zM0,109h98zM0,108h99zM0,107h101zM0,106h102zM0,105h103zM0,104h104zM0,103h107zM0,102h108zM0,101h109zM0,100h111zM0,99h113zM0,98h114zM0,97h116zM0,96h117zM0,95h120zM0,94h122zM0,93h124zM0,92h125zM0,91h128zM0,90h130zM0,89h132zM0,88h135zM0,87h139zM0,86h141zM0,85h144zM0,84h147zM0,83h152zM0,82h156zM0,81h160zM0,80h164zM0,79h176zM0,78h188zM137,168h95zM138,167h89zM139,166h86zM140,165h84zM140,164h82zM142,163h78zM143,162h76zM144,161h74zM145,160h72zM147,159h68zM148,158h66zM149,157h63zM151,156h60zM153,155h56zM155,154h52zM157,153h48zM160,152h44zM164,151h36zM168,150h28zM173,149h19zM393,239h20zM387,240h31zM384,241h36zM383,242h38zM381,243h41zM379,244h45zM377,245h47zM376,246h48zM376,247h48zM374,248h51zM373,249h52zM372,250h53zM372,251h53zM371,252h54zM370,253h55zM370,254h55zM369,255h56zM368,256h57zM368,257h56zM368,258h56zM368,259h56zM367,260h57zM367,261h57zM367,262h57zM366,263h57zM366,264h57zM366,265h57zM365,266h58zM365,267h57zM365,268h57zM364,269h58zM364,270h57zM364,271h57zM364,272h57zM364,273h56zM364,274h56zM363,275h57zM363,276h57zM363,277h57zM363,278h57zM362,279h57zM362,280h57zM362,281h57zM361,282h57zM361,283h57zM361,284h57zM360,285h58zM360,286h57zM360,287h57zM360,288h57zM360,289h56zM360,290h56zM359,291h57zM359,292h57zM359,293h57zM359,294h57zM358,295h57zM358,296h57zM358,297h57zM357,298h57zM357,299h57zM357,300h57zM356,301h58zM356,302h57zM356,303h57zM356,304h57zM356,305h56zM356,306h56zM355,307h57zM355,308h57zM355,309h57zM355,310h57zM354,311h57zM354,312h57zM354,313h57zM353,314h57zM353,315h57zM353,316h57zM352,317h57zM352,318h57zM352,319h57zM352,320h57zM352,321h56zM352,322h56zM351,323h57zM351,324h57zM351,325h57zM351,326h57zM350,327h57zM350,328h57zM350,329h57zM349,330h57zM349,331h57zM349,332h56zM348,333h57zM348,334h57zM348,335h56zM348,336h56zM348,337h55zM348,338h55zM348,339h54zM348,340h53zM348,341h52zM348,342h52zM348,343h51zM348,344h50zM349,345h47zM349,346h47zM350,347h45zM351,348h41zM352,349h38zM353,350h35zM355,351h32zM360,352h20z"
		stroke-width="1.0" />
	<path
		stroke="#ffffff"
		stroke-opacity="0.011764706"
		d="M188,78h1zM221,80h1zM252,90h1zM254,91h1zM125,92h1zM266,98h1zM91,115h1zM192,149h1zM167,150h1zM56,161h1zM262,163h1zM247,168h1zM401,170h1zM445,172h1zM377,174h1zM374,175h1zM461,177h1zM364,178h1zM463,178h1zM362,179h1zM471,182h1zM44,191h1zM328,198h1zM120,203h1zM309,217h1zM307,220h1zM501,220h1zM304,224h1zM115,225h1zM303,226h1zM298,234h1zM111,241h1zM136,241h1zM290,253h1zM289,256h1zM107,257h1zM423,263h1zM285,272h1zM103,273h1zM419,279h1zM174,297h1zM279,297h1zM96,299h1zM170,313h1zM275,313h1zM242,341h1zM400,341h1zM481,341h1zM99,343h1zM100,344h1zM369,353h1zM269,363h1zM21,377h1zM453,385h1zM451,387h1zM212,393h1zM283,394h1zM443,394h1zM36,398h1zM292,403h1zM414,411h1zM326,419h1z"
		stroke-width="1.0" />
	<path
		stroke="#ffffff"
		stroke-opacity="0.023529412"
		d="M189,78h1zM198,78h1zM248,88h1zM271,102h1zM279,111h1zM77,129h1zM71,137h1zM63,149h1zM163,151h1zM276,151h1zM218,161h1zM222,164h1zM135,170h1zM385,172h1zM50,175h1zM496,208h1zM150,224h1zM142,232h1zM413,239h1zM156,285h1zM491,303h1zM354,310h1zM487,319h1zM486,323h1zM167,326h1zM350,326h1zM407,327h1zM480,343h1zM241,344h1zM270,367h1zM466,370h1zM463,374h1zM224,382h1zM42,403h1zM418,409h1zM166,415h1z"
		stroke-width="1.0" />
	<path
		stroke="#ffffff"
		stroke-opacity="0.039215688"
		d="M190,78h1zM210,79h1zM165,80h1zM160,81h1zM156,82h1zM109,101h1zM273,104h1zM92,114h1zM60,154h1zM259,164h1zM139,165h1zM255,166h1zM132,174h1zM474,184h1zM341,189h1zM482,190h1zM123,194h1zM487,195h1zM263,234h1zM391,239h1zM500,266h1zM278,301h1zM169,317h1zM13,325h1zM93,330h1zM16,363h1zM233,369h1zM217,389h1zM29,390h1zM280,390h1zM295,405h1zM48,407h1zM55,411h1zM78,419h1z"
		stroke-width="1.0" />
	<path
		stroke="#ffffff"
		stroke-opacity="0.050980393"
		d="M191,78h1zM261,95h1zM280,113h1zM80,126h1zM152,155h1zM271,156h1zM144,160h1zM128,181h1zM472,183h1zM126,186h1zM125,188h1zM335,193h1zM495,206h1zM39,212h1zM243,216h1zM158,219h1zM403,238h1zM363,274h1zM102,276h1zM15,311h1zM270,334h1zM98,342h1zM479,346h1zM367,353h1zM235,365h1zM465,371h1zM205,398h1zM290,401h1zM194,404h1zM53,410h1zM178,411h1zM387,419h1z"
		stroke-width="1.0" />
	<path
		stroke="#ffffff"
		stroke-opacity="0.0627451"
		d="M192,78h1zM196,78h1zM258,93h1zM111,100h1zM274,105h1zM102,106h1zM284,134h1zM275,152h1zM272,155h1zM147,158h1zM394,171h1zM491,200h1zM118,212h1zM172,214h1zM401,238h1zM386,240h1zM133,258h1zM288,261h1zM141,276h1zM283,282h1zM17,299h1zM16,304h1zM101,345h1zM111,350h1zM223,383h1zM188,407h1zM372,421h1z"
		stroke-width="1.0" />
	<path
		stroke="#ffffff"
		stroke-opacity="0.07450981"
		d="M193,78h1zM148,84h1zM126,92h1zM116,97h1zM56,162h1zM137,167h1zM53,168h1zM402,170h1zM134,171h1zM493,203h1zM308,219h1zM262,232h1zM400,238h1zM264,240h1zM293,245h1zM420,274h1zM497,278h1zM248,315h1zM487,318h1zM272,325h1zM13,326h1zM164,338h1zM402,339h1zM234,367h1zM196,403h1zM298,407h1zM165,415h1zM314,415h1z"
		stroke-width="1.0" />
	<path
		stroke="#ffffff"
		stroke-opacity="0.09019608"
		d="M194,78h1zM263,162h1zM138,166h1zM429,170h1zM129,179h1zM233,214h1zM152,223h1zM503,231h1zM421,242h1zM107,255h1zM424,258h1zM499,270h1zM103,271h1zM142,277h1zM361,281h1zM21,283h1zM417,286h1zM255,288h1zM251,304h1zM16,305h1zM170,314h1zM247,320h1zM243,336h1zM127,352h1zM132,352h1zM239,352h1zM365,353h1zM469,365h1zM28,388h1zM446,391h1zM410,412h1zM328,419h1zM140,420h1z"
		stroke-width="1.0" />
	<path
		stroke="#ffffff"
		stroke-opacity="0.08627451"
		d="M195,78h1zM167,80h1zM268,100h1zM105,104h1zM90,116h1zM201,151h1zM257,165h1zM54,166h1zM136,168h1zM387,172h1zM448,173h1zM33,235h1zM399,238h1zM424,246h1zM503,250h1zM29,251h1zM133,257h1zM134,263h1zM25,267h1zM259,272h1zM99,287h1zM273,321h1zM408,322h1zM166,330h1zM398,344h1zM154,348h1zM128,352h1zM131,352h1zM375,353h1zM17,366h1zM270,366h1zM19,371h1zM460,377h1zM288,399h1zM305,411h1zM65,415h1zM398,416h1zM157,417h1zM386,419h1z"
		stroke-width="1.0" />
	<path
		stroke="#ffffff"
		stroke-opacity="0.043137256"
		d="M197,78h1zM144,85h1zM75,132h1zM279,147h1zM52,170h1zM381,173h1zM458,176h1zM467,180h1zM484,192h1zM253,221h1zM259,227h1zM422,243h1zM378,244h1zM291,251h1zM366,262h1zM98,292h1zM173,301h1zM274,317h1zM351,322h1zM94,334h1zM95,337h1zM13,345h1zM273,377h1zM25,384h1zM279,388h1zM284,395h1zM434,400h1z"
		stroke-width="1.0" />
	<path
		stroke="#ffffff"
		stroke-opacity="0.003921569"
		d="M176,79h1zM164,80h1zM152,83h1zM130,90h1zM269,100h1zM104,104h1zM88,117h1zM283,118h1zM76,130h1zM65,145h1zM196,150h1zM159,152h1zM205,153h1zM268,159h1zM219,162h1zM220,163h1zM52,169h1zM437,171h1zM449,173h1zM465,179h1zM356,181h1zM480,188h1zM338,191h1zM332,195h1zM329,197h1zM490,198h1zM492,201h1zM41,202h1zM313,212h1zM239,215h1zM37,218h1zM503,227h1zM139,236h1zM294,242h1zM375,247h1zM502,259h1zM262,261h1zM139,274h1zM418,282h1zM493,295h1zM491,304h1zM95,306h1zM276,307h1zM489,311h1zM14,316h1zM409,317h1zM487,320h1zM272,323h1zM13,324h1zM485,327h1zM164,336h1zM396,345h1zM268,346h1zM268,347h1zM479,347h1zM149,349h1zM390,349h1zM388,350h1zM370,353h1zM268,354h1zM268,355h1zM268,356h1zM238,357h1zM473,359h1zM17,367h1zM467,369h1zM22,379h1zM227,379h1zM459,379h1zM457,381h1zM24,383h1zM276,384h1zM277,386h1zM216,390h1zM282,393h1zM444,393h1zM442,395h1zM439,397h1zM46,406h1zM191,406h1zM189,407h1zM297,407h1zM179,411h1zM61,414h1zM77,419h1zM388,419h1zM334,420h1zM98,422h1zM126,422h1z"
		stroke-width="1.0" />
	<path
		stroke="#ffffff"
		stroke-opacity="0.09803922"
		d="M177,79h1zM136,88h1zM247,88h1zM82,124h1zM69,140h1zM371,176h1zM40,208h1zM251,220h1zM254,222h1zM36,224h1zM146,228h1zM295,241h1zM174,298h1zM413,302h1zM95,303h1zM486,322h1zM484,329h1zM108,349h1zM126,352h1zM133,352h1zM383,352h1zM230,374h1zM276,383h1zM100,422h1z"
		stroke-width="1.0" />
	<path
		stroke="#ffffff"
		stroke-opacity="0.23137255"
		d="M178,79h1zM210,155h1zM213,157h1zM133,172h1zM368,177h1zM309,218h1zM298,235h1zM383,241h1zM503,246h1zM137,270h1zM410,315h1zM13,334h1zM13,335h1zM396,346h1zM17,365h1zM33,394h1zM171,413h1zM92,421h1z"
		stroke-width="1.0" />
	<path
		stroke="#ffffff"
		stroke-opacity="0.36078432"
		d="M179,79h1zM277,149h1zM56,163h1zM379,174h1zM244,217h1zM310,217h1zM412,238h1zM109,246h1zM134,250h1zM105,262h1zM362,276h1zM417,288h1zM358,292h1zM355,303h1zM246,322h1zM242,338h1zM152,349h1zM238,354h1zM16,360h1zM24,381h1z"
		stroke-width="1.0" />
	<path
		stroke="#ffffff"
		stroke-opacity="0.47058824"
		d="M180,79h1zM123,94h1zM361,180h1zM126,184h1zM294,244h1zM417,289h1zM252,298h1zM61,413h1zM403,414h1zM331,419h1z"
		stroke-width="1.0" />
	<path
		stroke="#ffffff"
		stroke-opacity="0.54509807"
		d="M181,79h1zM284,126h1zM415,170h1zM327,200h1zM422,242h1zM137,269h1zM18,298h1zM276,312h1z"
		stroke-width="1.0" />
	<path
		stroke="#ffffff"
		stroke-opacity="0.6039216"
		d="M182,79h1zM98,110h1zM92,115h1zM174,148h1zM467,181h1zM257,277h1zM253,293h1zM491,299h1zM249,309h1zM350,322h1zM245,325h1zM426,404h1zM392,417h1zM137,420h1z"
		stroke-width="1.0" />
	<path
		stroke="#ffffff"
		stroke-opacity="0.6627451"
		d="M183,79h1zM160,82h1zM225,82h1zM144,86h1zM256,93h1zM114,99h1zM266,159h1zM153,223h1zM298,236h1zM14,325h1zM286,396h1zM411,411h1zM70,416h1zM355,421h1z"
		stroke-width="1.0" />
	<path
		stroke="#ffffff"
		stroke-opacity="0.7137255"
		d="M184,79h1zM166,81h1zM105,105h1zM60,156h1zM135,247h1zM423,265h1zM22,283h1zM418,286h1zM92,318h1zM274,321h1zM365,354h1z"
		stroke-width="1.0" />
	<path
		stroke="#ffffff"
		stroke-opacity="0.76862746"
		d="M185,79h1zM141,87h1zM124,94h1zM284,128h1zM284,130h1zM384,240h1zM373,247h1zM419,281h1zM275,316h1zM169,322h1zM347,344h1zM399,344h1zM397,346h1zM232,369h1zM303,409h1zM101,421h1z"
		stroke-width="1.0" />
	<path
		stroke="#ffffff"
		stroke-opacity="0.8235294"
		d="M186,79h1zM174,80h1zM438,172h1zM349,186h1zM121,196h1zM42,204h1zM500,220h1zM113,227h1zM293,248h1zM502,250h1zM263,252h1zM369,252h1zM258,272h1zM254,288h1zM357,293h1zM250,304h1zM15,316h1zM351,318h1zM362,354h1zM214,390h1zM37,397h1zM180,409h1zM324,417h1zM90,420h1z"
		stroke-width="1.0" />
	<path
		stroke="#ffffff"
		stroke-opacity="0.87058824"
		d="M187,79h1zM162,82h1zM110,102h1zM269,102h1zM156,152h1zM347,187h1zM495,208h1zM365,261h1zM25,272h1zM21,288h1zM352,314h1zM92,316h1zM348,330h1zM270,342h1zM126,353h1zM23,378h1zM312,413h1zM104,421h1z"
		stroke-width="1.0" />
	<path
		stroke="#ffffff"
		stroke-opacity="0.8745098"
		d="M188,79h1zM199,79h1zM249,90h1zM134,169h1zM371,177h1zM362,180h1zM342,190h1zM165,217h1zM242,217h1zM295,243h1zM424,262h1zM364,266h1zM360,282h1zM282,290h1zM356,298h1zM16,310h1zM407,330h1zM116,352h1zM463,372h1zM24,380h1zM30,389h1zM157,416h1zM340,420h1zM117,421h1z"
		stroke-width="1.0" />
	<path
		stroke="#ffffff"
		stroke-opacity="0.8784314"
		d="M189,79h1zM198,79h1zM242,87h1zM104,106h1zM206,152h1zM148,156h1zM457,177h1zM160,219h1zM298,237h1zM287,269h1zM271,333h1zM133,353h1zM383,353h1zM378,354h1zM270,359h1zM271,367h1zM462,373h1zM54,409h1z"
		stroke-width="1.0" />
	<path
		stroke="#ffffff"
		stroke-opacity="0.88235295"
		d="M190,79h2zM197,79h1zM96,112h1zM280,115h1zM279,145h1zM383,174h1zM49,181h1zM420,278h1zM283,285h1zM279,301h1zM278,306h1zM275,317h1zM271,334h1zM348,347h1zM105,349h1zM352,351h1zM60,412h1zM116,421h1z"
		stroke-width="1.0" />
	<path
		stroke="#ffffff"
		stroke-opacity="0.8862745"
		d="M192,79h1zM196,79h1zM218,81h1zM223,82h1zM113,100h1zM283,136h1zM71,139h1zM65,148h1zM351,185h1zM324,203h1zM172,215h1zM135,248h1zM426,251h1zM288,265h1zM492,294h1zM488,310h1zM352,313h1zM15,317h1zM485,321h1zM484,326h1zM348,329h1zM166,335h1zM111,351h1zM15,352h1zM473,356h1zM275,379h1zM276,381h1zM448,388h1zM91,420h1zM372,420h1zM105,421h1z"
		stroke-width="1.0" />
	<path
		stroke="#ffffff"
		stroke-opacity="0.8901961"
		d="M193,79h3zM276,109h1zM251,166h1zM402,171h1zM429,171h1zM355,183h1zM233,215h1zM291,254h1zM500,262h1zM135,263h1zM422,271h1zM496,278h1zM360,281h1zM178,285h1zM356,297h1zM171,314h1zM274,322h1zM167,330h1zM480,340h1zM471,360h1zM271,366h1zM230,372h1zM449,387h1zM84,419h1zM115,421h1z"
		stroke-width="1.0" />
	<path
		stroke="#ffffff"
		stroke-opacity="0.84705883"
		d="M200,79h1zM136,89h1zM122,193h1zM114,223h1zM110,239h1zM14,338h1zM403,339h1zM357,353h1zM44,403h1zM152,417h1zM119,421h1z"
		stroke-width="1.0" />
	<path
		stroke="#ffffff"
		stroke-opacity="0.8117647"
		d="M201,79h1zM261,96h1zM55,166h1zM48,183h1zM120,200h1zM498,270h1zM409,322h1zM14,330h1zM128,353h1zM47,405h1z"
		stroke-width="1.0" />
	<path
		stroke="#ffffff"
		stroke-opacity="0.77254903"
		d="M202,79h1zM219,81h1zM236,85h1zM245,88h1zM264,98h1zM284,129h1zM171,215h1zM256,225h1zM397,237h1zM408,237h1zM100,280h1zM415,297h1zM490,302h1zM96,341h1zM270,341h1zM14,342h1zM236,360h1zM458,378h1zM32,392h1zM83,419h1z"
		stroke-width="1.0" />
	<path
		stroke="#ffffff"
		stroke-opacity="0.7411765"
		d="M203,79h1zM284,127h1zM248,167h1zM46,189h1zM138,240h1zM374,246h1zM260,265h1zM283,284h1zM93,309h1zM277,309h1zM167,329h1zM14,343h1zM466,368h1zM460,376h1zM459,377h1zM391,417h1z"
		stroke-width="1.0" />
	<path
		stroke="#ffffff"
		stroke-opacity="0.69411767"
		d="M204,79h1zM54,168h1zM261,232h1zM289,261h1zM239,349h1zM366,354h1zM25,382h1zM198,401h1zM396,416h1z"
		stroke-width="1.0" />
	<path
		stroke="#ffffff"
		stroke-opacity="0.62352943"
		d="M205,79h1zM258,94h1zM203,151h1zM252,166h1zM373,176h1zM326,201h1zM136,244h1zM365,263h1zM361,279h1zM164,285h13zM19,294h1zM357,295h1zM14,324h1zM95,339h1zM402,340h1zM358,353h1zM440,395h1zM290,400h1z"
		stroke-width="1.0" />
	<path
		stroke="#ffffff"
		stroke-opacity="0.5529412"
		d="M206,79h1zM135,89h1zM200,150h1zM243,168h1zM416,170h1zM46,188h1zM486,195h1zM170,215h1zM149,226h1zM424,261h1zM169,321h1zM483,331h1zM106,349h1zM477,349h1zM145,351h1zM235,363h1zM270,364h1zM349,421h1z"
		stroke-width="1.0" />
	<path
		stroke="#ffffff"
		stroke-opacity="0.44705883"
		d="M207,79h1zM221,81h1zM121,95h1zM497,211h1zM154,222h1zM103,269h1zM93,312h1z"
		stroke-width="1.0" />
	<path
		stroke="#ffffff"
		stroke-opacity="0.3254902"
		d="M208,79h1zM146,85h1zM253,91h1zM119,96h1zM164,150h1zM503,242h1zM29,253h1zM21,285h1zM168,324h1zM144,351h1zM215,390h1zM199,401h1z"
		stroke-width="1.0" />
	<path
		stroke="#ffffff"
		stroke-opacity="0.1882353"
		d="M209,79h1zM314,212h1zM260,229h1zM503,247h1zM499,269h1zM102,275h1zM22,280h1zM18,296h1zM354,309h1zM13,330h1zM121,352h1zM26,385h1z"
		stroke-width="1.0" />
	<path
		stroke="#ffffff"
		stroke-opacity="0.06666667"
		d="M166,80h1zM118,96h1zM283,119h1zM162,151h1zM367,177h1zM46,186h1zM478,187h1zM497,210h1zM498,212h1zM255,223h1zM305,223h1zM148,226h1zM301,229h1zM138,238h1zM404,238h1zM136,242h1zM289,257h1zM284,277h1zM19,292h1zM280,293h1zM493,294h1zM279,298h1zM95,304h1zM14,317h1zM349,329h1zM406,330h1zM404,335h1zM150,349h1zM269,361h1zM20,374h1zM24,382h1zM219,387h1zM40,401h1zM427,404h1zM50,408h1zM74,418h1zM148,419h1z"
		stroke-width="1.0" />
	<path
		stroke="#ffffff"
		stroke-opacity="0.101960786"
		d="M168,80h1zM218,80h1zM242,86h1zM58,158h1zM457,176h1zM127,183h1zM351,184h1zM485,193h1zM32,240h1zM418,240h1zM264,249h1zM28,256h1zM24,272h1zM138,272h1zM20,288h1zM97,295h1zM409,318h1zM125,352h1zM476,352h1zM231,372h1zM220,386h1z"
		stroke-width="1.0" />
	<path
		stroke="#ffffff"
		stroke-opacity="0.13725491"
		d="M169,80h1zM235,84h1zM347,186h1zM502,225h1zM145,229h1zM262,260h1zM136,268h1zM177,286h1zM280,294h1zM16,306h1zM13,328h1zM483,333h1zM102,346h1zM393,348h1zM391,349h1zM389,350h1zM363,353h1zM22,378h1zM56,411h1zM384,419h1z"
		stroke-width="1.0" />
	<path
		stroke="#ffffff"
		stroke-opacity="0.27450982"
		d="M170,80h1zM127,92h1zM264,161h1zM116,218h1zM502,226h1zM503,245h1zM257,279h1zM495,284h1zM255,286h1zM17,301h1zM251,302h1zM490,305h1zM14,319h1zM273,376h1zM36,397h1zM370,421h1z"
		stroke-width="1.0" />
	<path
		stroke="#ffffff"
		stroke-opacity="0.46666667"
		d="M171,80h1zM143,86h1zM274,106h1zM278,111h1zM121,198h1zM115,221h1zM286,271h1zM256,282h1zM152,283h1zM277,308h1zM385,352h1zM367,421h1z"
		stroke-width="1.0" />
	<path
		stroke="#ffffff"
		stroke-opacity="0.6431373"
		d="M172,80h1zM271,155h1zM331,197h1zM494,206h1zM362,274h1zM274,320h1zM408,325h1zM478,346h1zM475,353h1zM372,354h1zM234,365h1zM445,391h1zM354,421h1z"
		stroke-width="1.0" />
	<path
		stroke="#ffffff"
		stroke-opacity="0.74509805"
		d="M173,80h1zM213,80h1zM241,168h1zM115,220h1zM407,237h1zM256,281h1zM252,297h1zM248,313h1zM244,329h1zM166,334h1zM226,378h1zM196,402h1zM301,408h1zM418,408h1zM413,410h1zM158,416h1zM123,421h1z"
		stroke-width="1.0" />
	<path
		stroke="#ffffff"
		stroke-opacity="0.9019608"
		d="M175,80h1zM257,94h1zM153,153h1zM210,154h1zM54,169h1zM403,171h1zM378,175h1zM480,190h1zM497,213h1zM116,215h1zM501,226h1zM303,228h1zM112,231h1zM420,240h1zM108,247h1zM136,266h1zM146,279h1zM18,301h1zM174,303h1zM489,305h1zM247,316h1zM92,331h1zM271,335h1zM107,350h1zM361,354h1zM236,359h1zM274,376h1zM26,383h1zM283,392h1zM201,399h1zM107,421h1zM113,421h1z"
		stroke-width="1.0" />
	<path
		stroke="#ffffff"
		stroke-opacity="0.9764706"
		d="M176,80h1zM139,88h1zM106,105h1zM98,111h1zM90,118h1zM278,146h1zM64,150h1zM202,150h1zM63,152h1zM151,154h1zM136,166h1zM412,171h1zM419,171h2zM348,187h1zM341,191h1zM326,202h1zM257,227h1zM393,237h1zM412,237h1zM382,240h1zM296,241h1zM137,243h1zM425,245h1zM426,248h1zM292,251h1zM426,255h1zM139,271h1zM100,277h1zM256,278h1zM420,279h1zM160,284h1zM252,294h1zM175,300h1zM18,302h1zM488,308h1zM248,310h1zM275,319h1zM15,322h1zM169,323h1zM244,326h1zM241,338h1zM240,342h1zM101,347h1zM109,351h1zM149,351h1zM142,352h1zM237,354h1zM16,357h1zM19,367h1zM223,381h1zM217,387h1zM436,397h1zM296,404h1zM322,416h1zM150,417h1zM365,420h1z"
		stroke-width="1.0" />
	<path
		stroke="#ffffff"
		stroke-opacity="1.0"
		d="M177,80h33zM170,81h46zM165,82h56zM160,83h65zM153,84h79zM151,85h84zM148,86h89zM145,87h95zM140,88h104zM138,89h108zM136,90h112zM133,91h117zM130,92h123zM128,93h127zM126,94h130zM124,95h134zM121,96h139zM120,97h141zM118,98h145zM117,99h147zM114,100h152zM113,101h155zM112,102h156zM110,103h159zM108,104h163zM107,105h165zM105,106h167zM104,107h169zM102,108h173zM101,109h175zM100,110h176zM100,111h176zM97,112h181zM96,113h183zM96,114h183zM94,115h186zM92,116h188zM92,117h188zM91,118h190zM90,119h191zM88,120h194zM88,121h194zM87,122h196zM86,123h197zM84,124h199zM84,125h200zM83,126h201zM82,127h202zM80,128h204zM80,129h204zM80,130h204zM79,131h205zM77,132h207zM76,133h208zM76,134h207zM76,135h207zM74,136h209zM73,137h209zM73,138h209zM72,139h210zM72,140h209zM71,141h209zM70,142h210zM69,143h211zM68,144h211zM68,145h211zM68,146h210zM67,147h210zM197,148h79zM200,149h76zM203,150h72zM205,151h69zM208,152h65zM210,153h62zM211,154h60zM212,155h59zM215,156h53zM216,157h52zM217,158h50zM218,159h47zM220,160h43zM221,161h40zM222,162h38zM224,163h35zM226,164h29zM228,165h24zM229,166h22zM232,167h15zM66,148h101zM65,149h99zM65,150h95zM64,151h94zM64,152h90zM63,153h89zM63,154h88zM62,155h87zM61,156h86zM61,157h85zM60,158h84zM60,159h84zM59,160h83zM59,161h81zM58,162h82zM58,163h82zM57,164h81zM56,165h81zM56,166h80zM56,167h80zM56,168h78zM55,169h79zM55,170h78zM54,171h78zM53,172h79zM53,173h78zM53,174h78zM52,175h78zM52,176h77zM52,177h76zM51,178h77zM51,179h77zM50,180h77zM50,181h77zM50,182h76zM49,183h77zM48,184h77zM48,185h77zM48,186h76zM48,187h76zM48,188h76zM47,189h77zM47,190h76zM47,191h76zM46,192h76zM46,193h76zM46,194h76zM45,195h76zM45,196h76zM44,197h76zM44,198h76zM44,199h76zM44,200h76zM44,201h76zM44,202h75zM44,203h75zM43,204h76zM43,205h76zM43,206h75zM42,207h76zM42,208h76zM42,209h75zM41,210h76zM41,211h76zM41,212h75zM40,213h76zM40,214h76zM40,215h76zM40,216h76zM40,217h76zM40,218h76zM40,219h75zM39,220h76zM39,221h76zM39,222h75zM38,223h76zM38,224h76zM38,225h75zM37,226h76zM37,227h76zM37,228h75zM36,229h76zM36,230h76zM36,231h76zM36,232h76zM36,233h76zM36,234h76zM36,235h75zM35,236h76zM35,237h76zM35,238h75zM34,239h76zM34,240h76zM34,241h75zM33,242h76zM33,243h76zM33,244h75zM32,245h76zM32,246h76zM32,247h76zM32,248h76zM32,249h76zM32,250h76zM32,251h75zM31,252h76zM31,253h76zM31,254h75zM30,255h76zM30,256h76zM30,257h75zM29,258h76zM29,259h76zM29,260h75zM28,261h76zM28,262h76zM28,263h76zM28,264h76zM28,265h76zM28,266h76zM28,267h75zM27,268h76zM27,269h76zM27,270h75zM26,271h76zM26,272h76zM26,273h75zM25,274h76zM25,275h76zM25,276h75zM24,277h76zM24,278h76zM24,279h76zM24,280h76zM24,281h76zM24,282h76zM24,283h75zM23,284h76zM23,285h76zM23,286h75zM22,287h76zM22,288h76zM22,289h75zM21,290h76zM21,291h76zM21,292h75zM20,293h76zM20,294h76zM20,295h76zM20,296h76zM20,297h76zM20,298h76zM20,299h75zM19,300h76zM19,301h76zM19,302h75zM19,303h75zM18,304h76zM18,305h76zM18,306h75zM18,307h75zM17,308h76zM17,309h76zM17,310h75zM17,311h75zM16,312h76zM16,313h76zM16,314h76zM16,315h76zM16,316h76zM16,317h76zM16,318h76zM16,319h76zM16,320h76zM16,321h76zM16,322h76zM16,323h76zM16,324h76zM15,325h77zM15,326h77zM15,327h77zM15,328h77zM15,329h77zM15,330h77zM15,331h77zM15,332h77zM15,333h77zM15,334h77zM15,335h78zM15,336h78zM15,337h79zM15,338h79zM15,339h79zM15,340h80zM15,341h81zM15,342h81zM15,343h81zM15,344h83zM15,345h84zM16,346h84zM16,347h85zM16,348h88zM16,349h88zM16,350h90zM16,351h92zM16,352h100zM16,353h106zM16,354h221zM16,355h221zM16,356h220zM17,357h219zM17,358h219zM17,359h219zM18,360h218zM18,361h217zM18,362h217zM18,363h217zM19,364h215zM19,365h214zM20,366h213zM20,367h212zM20,368h212zM20,369h212zM20,370h211zM21,371h210zM21,372h208zM22,373h207zM22,374h206zM23,375h205zM24,376h203zM24,377h202zM24,378h201zM24,379h200zM25,380h199zM26,381h197zM26,382h196zM27,383h194zM28,384h192zM28,385h191zM29,386h189zM29,387h188zM31,388h185zM32,389h183zM32,390h181zM32,391h180zM34,392h176zM35,393h174zM36,394h172zM36,395h171zM38,396h166zM39,397h165zM40,398h162zM40,399h160zM42,400h156zM44,401h152zM44,402h151zM45,403h148zM48,404h142zM49,405h139zM50,406h137zM52,407h132zM54,408h126zM56,409h123zM57,410h119zM59,411h115zM63,412h106zM65,413h101zM67,414h96zM69,415h91zM75,416h78zM78,417h72zM82,418h63zM86,419h54zM99,420h27zM136,353h101zM143,352h95zM151,351h87zM153,350h85zM156,349h83zM158,348h81zM162,347h77zM164,346h76zM164,345h76zM164,344h76zM164,343h76zM165,342h75zM165,341h75zM165,340h75zM166,339h75zM166,338h75zM166,337h75zM167,336h75zM167,335h75zM167,334h75zM168,333h75zM168,332h75zM168,331h75zM168,330h76zM168,329h76zM168,328h76zM169,327h75zM169,326h75zM169,325h75zM169,324h75zM170,323h75zM170,322h75zM170,321h75zM171,320h75zM171,319h75zM171,318h75zM171,317h76zM172,316h75zM172,315h75zM172,314h76zM172,313h76zM172,312h76zM172,311h76zM173,310h75zM173,309h75zM173,308h75zM174,307h75zM174,306h75zM174,305h75zM174,304h76zM175,303h75zM175,302h75zM175,301h76zM176,300h75zM176,299h75zM176,298h76zM176,297h76zM176,296h76zM176,295h76zM177,294h75zM177,293h75zM177,292h75zM178,291h75zM178,290h75zM178,289h75zM178,288h76zM179,287h75zM179,286h75zM179,285h76zM164,284h91zM154,283h101zM152,282h104zM151,281h105zM149,280h107zM147,279h109zM146,278h110zM145,277h111zM144,276h112zM143,275h114zM142,274h115zM141,273h116zM140,272h118zM140,271h118zM139,270h119zM139,269h120zM138,268h121zM137,267h122zM137,266h123zM136,265h124zM136,264h124zM136,263h124zM136,262h124zM136,261h124zM136,260h124zM135,259h126zM135,258h126zM135,257h126zM135,256h127zM135,255h127zM135,254h127zM135,253h128zM135,252h128zM136,251h127zM136,250h127zM136,249h127zM136,248h128zM136,247h128zM136,246h128zM137,245h127zM137,244h127zM138,243h126zM138,242h126zM139,241h125zM139,240h125zM140,239h123zM140,238h123zM141,237h122zM141,236h121zM143,235h119zM144,234h117zM144,233h117zM144,232h116zM146,231h114zM147,230h113zM148,229h111zM148,228h110zM150,227h107zM151,226h105zM152,225h104zM153,224h102zM156,223h96zM156,222h96zM158,221h92zM160,220h88zM163,219h83zM164,218h80zM167,217h74zM169,216h69zM395,172h42zM390,173h51zM386,174h59zM382,175h67zM375,176h79zM372,177h84zM370,178h89zM368,179h92zM364,180h100zM361,181h105zM360,182h108zM357,183h112zM354,184h118zM352,185h121zM351,186h123zM349,187h127zM346,188h132zM345,189h134zM344,190h136zM342,191h138zM340,192h143zM338,193h146zM337,194h147zM336,195h149zM334,196h153zM332,197h155zM332,198h156zM331,199h157zM328,200h162zM328,201h162zM327,202h164zM326,203h166zM324,204h168zM323,205h170zM322,206h171zM321,207h173zM320,208h175zM319,209h177zM318,210h178zM317,211h179zM316,212h181zM316,213h181zM315,214h182zM314,215h184zM312,216h187zM312,217h187zM311,218h188zM311,219h189zM309,220h191zM308,221h192zM308,222h192zM308,223h192zM307,224h194zM306,225h195zM305,226h196zM305,227h196zM304,228h198zM304,229h198zM303,230h199zM302,231h200zM301,232h201zM301,233h202zM300,234h203zM300,235h203zM299,236h204zM413,237h90zM417,238h86zM420,239h83zM422,240h81zM423,241h80zM424,242h79zM424,243h79zM426,244h77zM426,245h77zM426,246h77zM427,247h76zM427,248h75zM427,249h75zM427,250h75zM427,251h75zM427,252h75zM427,253h75zM427,254h75zM427,255h74zM427,256h74zM426,257h75zM426,258h75zM426,259h74zM426,260h74zM425,261h75zM425,262h75zM425,263h75zM424,264h76zM424,265h76zM424,266h75zM424,267h75zM424,268h75zM424,269h74zM424,270h74zM423,271h75zM423,272h74zM423,273h74zM422,274h75zM422,275h75zM422,276h74zM421,277h75zM421,278h75zM421,279h75zM420,280h76zM420,281h76zM420,282h75zM420,283h75zM420,284h75zM420,285h74zM420,286h74zM419,287h75zM419,288h74zM419,289h74zM418,290h75zM418,291h75zM418,292h74zM417,293h75zM417,294h75zM417,295h75zM416,296h76zM416,297h76zM416,298h75zM416,299h75zM416,300h75zM416,301h74zM416,302h74zM415,303h75zM415,304h74zM415,305h74zM414,306h75zM414,307h75zM414,308h74zM413,309h75zM413,310h75zM413,311h75zM412,312h76zM412,313h76zM412,314h75zM412,315h75zM412,316h75zM412,317h74zM412,318h74zM411,319h75zM411,320h74zM411,321h74zM410,322h75zM410,323h75zM410,324h74zM409,325h75zM409,326h75zM409,327h75zM408,328h76zM408,329h76zM408,330h75zM408,331h75zM408,332h75zM407,333h75zM407,334h75zM407,335h75zM406,336h75zM405,337h76zM405,338h75zM404,339h76zM404,340h76zM403,341h77zM403,342h77zM402,343h77zM400,344h79zM400,345h78zM399,346h79zM398,347h79zM396,348h81zM395,349h81zM393,350h83zM392,351h84zM388,352h87zM385,353h90zM380,354h94zM270,355h204zM270,356h203zM271,357h201zM271,358h201zM271,359h201zM271,360h200zM271,361h199zM271,362h199zM271,363h198zM272,364h196zM272,365h196zM272,366h195zM272,367h195zM272,368h193zM272,369h193zM273,370h191zM273,371h191zM273,372h190zM274,373h188zM274,374h187zM274,375h186zM275,376h184zM276,377h183zM276,378h182zM276,379h181zM276,380h180zM277,381h178zM277,382h177zM278,383h175zM279,384h173zM280,385h171zM280,386h170zM280,387h169zM281,388h167zM282,389h164zM283,390h162zM283,391h161zM284,392h159zM285,393h156zM286,394h154zM287,395h153zM288,396h149zM288,397h148zM289,398h146zM291,399h142zM292,400h139zM293,401h137zM294,402h134zM295,403h132zM297,404h127zM298,405h125zM300,406h120zM301,407h119zM304,408h112zM305,409h109zM307,410h105zM308,411h102zM312,412h93zM314,413h90zM316,414h84zM318,415h80zM324,416h68zM327,417h61zM331,418h53zM335,419h44zM353,420h7zM270,354h90zM270,353h86zM270,352h84zM270,351h82zM270,350h80zM270,349h79zM270,348h79zM270,347h78zM270,346h78zM270,345h78zM271,344h76zM271,343h76zM271,342h76zM271,341h76zM271,340h76zM271,339h76zM271,338h76zM272,337h75zM272,336h75zM272,335h75zM272,334h75zM272,333h76zM272,332h76zM272,331h76zM272,330h76zM273,329h75zM273,328h75zM273,327h75zM274,326h75zM274,325h75zM274,324h75zM275,323h75zM275,322h75zM275,321h75zM275,320h75zM276,319h75zM276,318h75zM276,317h75zM276,316h76zM276,315h76zM276,314h76zM277,313h75zM277,312h75zM277,311h75zM278,310h75zM278,309h75zM278,308h75zM279,307h75zM279,306h75zM279,305h75zM279,304h76zM280,303h75zM280,302h75zM280,301h76zM280,300h76zM280,299h76zM280,298h76zM281,297h75zM281,296h75zM281,295h76zM282,294h75zM282,293h75zM282,292h75zM283,291h75zM283,290h75zM283,289h75zM283,288h76zM284,287h75zM284,286h75zM284,285h76zM284,284h76zM284,283h76zM284,282h76zM285,281h75zM285,280h75zM285,279h76zM286,278h75zM286,277h75zM286,276h75zM287,275h75zM287,274h75zM287,273h75zM287,272h76zM288,271h75zM288,270h75zM288,269h76zM288,268h76zM288,267h76zM288,266h76zM289,265h75zM289,264h75zM289,263h76zM290,262h75zM290,261h75zM290,260h75zM291,259h75zM291,258h75zM291,257h76zM291,256h76zM292,255h76zM292,254h76zM292,253h76zM292,252h76zM293,251h77zM293,250h77zM293,249h78zM294,248h78zM295,247h78zM295,246h79zM295,245h80zM296,244h80zM296,243h82zM296,242h83zM297,241h83zM297,240h85zM298,239h88zM298,238h91zM299,237h94z"
		stroke-width="1.0" />
	<path
		stroke="#ffffff"
		stroke-opacity="0.99215686"
		d="M210,80h1zM240,87h1zM246,89h1zM135,90h1zM250,91h1zM263,98h1zM264,99h1zM266,100h1zM111,102h1zM279,114h1zM87,121h1zM282,121h1zM85,123h1zM283,124h1zM78,131h1zM283,134h1zM67,146h1zM147,156h1zM60,157h1zM265,159h1zM223,163h1zM132,171h1zM394,172h1zM441,173h1zM445,174h1zM456,177h1zM127,180h1zM126,182h1zM343,190h1zM46,191h1zM45,194h1zM120,197h1zM487,197h1zM325,203h1zM314,214h1zM238,216h1zM241,217h1zM310,219h1zM250,221h1zM307,223h1zM500,223h1zM501,227h1zM303,229h1zM262,254h1zM426,256h1zM29,257h1zM365,260h1zM260,261h1zM423,269h1zM258,270h1zM256,277h1zM162,284h1zM254,286h1zM493,288h1zM21,289h1zM282,291h1zM417,292h1zM252,293h1zM250,302h1zM489,304h1zM278,307h1zM413,308h1zM248,309h1zM246,318h1zM485,320h1zM274,323h1zM409,324h1zM244,325h1zM92,334h1zM242,334h1zM404,338h1zM95,340h1zM403,340h1zM240,341h1zM161,347h1zM238,350h1zM392,350h1zM387,352h1zM122,353h1zM135,353h1zM236,357h1zM270,357h1zM235,361h1zM228,374h1zM441,393h1zM38,397h1zM39,398h1zM198,400h1zM431,400h1zM193,403h1zM424,404h1zM48,405h1zM55,409h1zM176,410h1zM169,412h1zM311,412h1zM166,413h1zM160,415h1zM154,416h1zM392,416h1zM388,417h1zM145,418h1zM351,420h1zM361,420h1z"
		stroke-width="1.0" />
	<path
		stroke="#ffffff"
		stroke-opacity="0.92941177"
		d="M211,80h1zM117,98h1zM79,129h1zM67,145h1zM276,149h1zM161,150h1zM146,157h1zM268,157h1zM141,161h1zM405,171h1zM446,174h1zM488,198h1zM329,199h1zM117,210h1zM316,211h1zM151,225h1zM376,244h1zM256,279h1zM252,295h1zM354,305h1zM412,310h1zM248,311h1zM15,319h1zM244,327h1zM354,352h1zM124,353h1zM134,353h1zM271,365h1zM19,368h1zM42,401h1zM417,408h1zM164,414h1zM325,417h1zM329,418h1zM370,420h1z"
		stroke-width="1.0" />
	<path
		stroke="#ffffff"
		stroke-opacity="0.84313726"
		d="M212,80h1zM247,89h1zM78,130h1zM62,153h1zM124,188h1zM322,205h1zM106,255h1zM138,270h1zM102,271h1zM17,305h1zM14,332h1zM127,353h1zM16,358h1zM457,379h1zM294,403h1z"
		stroke-width="1.0" />
	<path
		stroke="#ffffff"
		stroke-opacity="0.6156863"
		d="M214,80h1zM220,81h1zM240,86h1zM469,182h1zM164,217h1zM98,288h1zM416,293h1zM104,348h1zM45,404h1zM424,405h1zM422,406h1zM360,421h1z"
		stroke-width="1.0" />
	<path
		stroke="#ffffff"
		stroke-opacity="0.4392157"
		d="M215,80h1zM99,109h1zM445,173h1zM332,196h1zM114,225h1zM407,328h1zM233,368h1zM400,415h1zM368,421h1z"
		stroke-width="1.0" />
	<path
		stroke="#ffffff"
		stroke-opacity="0.25882354"
		d="M216,80h1zM110,101h1zM220,162h1zM464,179h1zM333,195h1zM174,214h1zM497,277h1zM491,300h1zM277,306h1zM165,335h1zM480,342h1zM271,369h1zM132,421h1zM105,422h1zM116,422h1z"
		stroke-width="1.0" />
	<path
		stroke="#ffffff"
		stroke-opacity="0.12941177"
		d="M217,80h1zM133,89h1zM278,110h1zM65,146h1zM360,180h1zM48,181h1zM325,201h1zM162,217h1zM288,262h1zM105,263h1zM258,276h1zM254,292h1zM173,302h1zM122,352h1zM135,352h1zM238,356h1zM287,398h1zM405,414h1zM315,415h1z"
		stroke-width="1.0" />
	<path
		stroke="#ffffff"
		stroke-opacity="0.078431375"
		d="M219,80h1zM236,84h1zM83,123h1zM197,150h1zM154,154h1zM270,157h1zM261,163h1zM232,168h1zM443,172h1zM312,214h1zM144,230h1zM300,231h1zM405,238h1zM390,239h1zM133,254h1zM501,262h1zM421,270h1zM281,289h1zM491,302h1zM172,306h1zM168,322h1zM14,352h1zM15,357h1zM441,395h1zM203,399h1zM402,415h1zM91,421h1zM124,422h1z"
		stroke-width="1.0" />
	<path
		stroke="#ffffff"
		stroke-opacity="0.047058824"
		d="M220,80h1zM225,81h1zM74,133h1zM269,158h1zM225,166h1zM252,167h1zM444,172h1zM48,180h1zM359,180h1zM343,188h1zM122,197h1zM164,216h1zM156,220h1zM402,238h1zM502,258h1zM99,288h1zM359,290h1zM355,306h1zM161,345h1zM115,351h1zM142,351h1zM358,352h1zM374,353h1zM18,369h1zM271,370h1zM462,375h1zM461,376h1zM218,388h1zM431,402h1zM45,405h1zM422,407h1zM169,414h1zM323,418h1zM99,422h1zM357,422h1z"
		stroke-width="1.0" />
	<path
		stroke="#ffffff"
		stroke-opacity="0.14901961"
		d="M161,81h1zM64,148h1zM403,170h1zM479,188h1zM408,238h1zM270,335h1zM482,337h1zM269,341h1zM13,342h1zM400,342h1zM272,373h1zM206,397h1zM187,407h1zM174,412h1z"
		stroke-width="1.0" />
	<path
		stroke="#ffffff"
		stroke-opacity="0.24313726"
		d="M162,81h1zM107,103h1zM73,135h1zM134,262h1zM483,332h1zM269,342h1zM356,352h1zM232,370h1z"
		stroke-width="1.0" />
	<path
		stroke="#ffffff"
		stroke-opacity="0.3137255"
		d="M163,81h1zM265,98h1zM321,205h1zM503,243h1zM31,245h1zM164,340h1zM269,343h1zM69,416h1zM321,417h1z"
		stroke-width="1.0" />
	<path
		stroke="#ffffff"
		stroke-opacity="0.40392157"
		d="M164,81h1zM227,82h1zM125,93h1zM282,140h1zM369,177h1zM48,182h1zM140,236h1zM140,274h1zM492,296h1zM490,304h1zM165,336h1zM481,339h1zM269,355h1zM304,410h1zM388,418h1z"
		stroke-width="1.0" />
	<path
		stroke="#ffffff"
		stroke-opacity="0.5686275"
		d="M165,81h1zM474,185h1zM477,187h1zM484,193h1zM30,250h1zM425,257h1zM26,266h1zM420,277h1zM22,282h1zM177,289h1zM14,323h1zM17,363h1zM55,410h1zM316,415h1z"
		stroke-width="1.0" />
	<path
		stroke="#ffffff"
		stroke-opacity="0.8156863"
		d="M167,81h1zM239,86h1zM84,123h1zM77,131h1zM68,143h1zM198,149h1zM208,153h1zM337,193h1zM334,195h1zM158,220h1zM101,275h1zM353,309h1zM15,353h1zM39,399h1zM386,418h1zM121,421h1z"
		stroke-width="1.0" />
	<path
		stroke="#ffffff"
		stroke-opacity="0.8980392"
		d="M168,81h1zM69,142h1zM171,148h1zM193,148h1zM360,181h1zM468,182h1zM498,215h1zM500,221h1zM104,263h1zM259,268h1zM100,279h1zM284,281h1zM255,284h1zM251,300h1zM92,315h1zM389,351h1zM125,353h1zM161,415h1zM133,420h1zM114,421h1z"
		stroke-width="1.0" />
	<path
		stroke="#ffffff"
		stroke-opacity="0.972549"
		d="M169,81h1zM217,81h1zM109,103h1zM275,108h1zM277,111h1zM81,127h1zM282,138h1zM66,147h1zM168,148h1zM215,157h1zM410,171h2zM421,171h1zM369,178h1zM484,194h1zM485,195h1zM333,196h1zM327,201h1zM146,230h1zM263,250h1zM424,263h1zM423,268h1zM422,272h1zM257,274h1zM148,280h1zM253,290h1zM96,293h1zM490,301h1zM279,303h1zM249,306h1zM171,316h1zM245,322h1zM484,324h1zM165,339h1zM96,342h1zM15,348h1zM349,349h1zM18,364h1zM231,370h1zM20,371h1zM278,384h1zM284,393h1zM41,400h1zM291,400h1zM412,410h1zM170,412h1zM155,416h1zM85,419h1zM95,420h1zM129,420h1zM347,420h1zM366,420h1z"
		stroke-width="1.0" />
	<path
		stroke="#ffffff"
		stroke-opacity="0.99607843"
		d="M216,81h1zM164,82h1zM221,82h1zM225,83h1zM150,85h1zM147,86h1zM237,86h1zM144,87h1zM256,94h1zM260,96h1zM261,97h1zM116,99h1zM268,102h1zM269,103h1zM272,106h1zM273,107h1zM99,111h1zM276,111h1zM95,114h1zM280,117h1zM281,119h1zM79,130h1zM75,135h1zM282,137h1zM71,140h1zM280,141h1zM279,144h1zM277,147h1zM167,148h1zM276,148h1zM160,150h1zM274,151h1zM154,152h1zM152,153h1zM271,154h1zM149,155h1zM268,156h1zM144,158h1zM263,160h1zM140,161h1zM261,161h1zM255,164h1zM252,165h1zM55,168h1zM134,168h1zM54,170h1zM389,173h1zM52,174h1zM385,174h1zM381,175h1zM128,177h1zM367,179h1zM460,179h1zM363,180h1zM49,182h1zM359,182h1zM480,191h1zM330,199h1zM488,199h1zM490,201h1zM119,202h1zM43,203h1zM42,206h1zM493,206h1zM116,212h1zM315,213h1zM497,214h1zM166,217h1zM39,219h1zM162,219h1zM159,220h1zM248,220h1zM38,222h1zM155,223h1zM252,223h1zM304,227h1zM112,228h1zM260,232h1zM143,234h1zM261,234h1zM35,235h1zM34,238h1zM416,238h1zM419,239h1zM108,244h1zM425,244h1zM294,247h1zM426,247h1zM502,248h1zM263,249h1zM31,251h1zM368,252h1zM30,254h1zM261,257h1zM500,259h1zM104,260h1zM260,260h1zM27,267h1zM26,270h1zM423,270h1zM497,272h1zM257,273h1zM422,273h1zM100,276h1zM256,276h1zM23,283h1zM163,284h1zM419,285h1zM419,286h1zM22,286h1zM253,289h1zM418,289h1zM96,292h1zM252,292h1zM19,299h1zM415,301h1zM415,302h1zM18,303h1zM249,305h1zM414,305h1zM17,307h1zM248,308h1zM92,310h1zM352,311h1zM351,317h1zM411,317h1zM411,318h1zM170,320h1zM350,320h1zM245,321h1zM410,321h1zM15,324h1zM244,324h1zM168,327h1zM348,327h1zM407,332h1zM167,333h1zM406,335h1zM166,336h1zM241,337h1zM480,338h1zM94,339h1zM240,340h1zM402,342h1zM96,343h1zM401,343h1zM15,346h1zM397,347h1zM104,349h1zM394,349h1zM106,350h1zM108,351h1zM150,351h1zM391,351h1zM237,353h1zM384,353h1zM236,356h1zM17,360h1zM233,365h1zM19,366h1zM232,367h1zM465,368h1zM272,370h1zM229,372h1zM23,376h1zM459,376h1zM275,377h1zM225,378h1zM224,379h1zM279,385h1zM30,388h1zM31,389h1zM446,389h1zM213,390h1zM212,391h1zM210,392h1zM209,393h1zM35,394h1zM286,395h1zM37,396h1zM204,396h1zM200,399h1zM290,399h1zM433,399h1zM43,401h1zM196,401h1zM47,404h1zM190,404h1zM188,405h1zM420,406h1zM51,407h1zM184,407h1zM180,408h1zM303,408h1zM62,412h1zM405,412h1zM64,413h1zM163,414h1zM400,414h1zM74,416h1zM153,416h1zM323,416h1zM140,419h1zM98,420h1zM126,420h1zM352,420h1zM360,420h1z"
		stroke-width="1.0" />
	<path
		stroke="#ffffff"
		stroke-opacity="0.33333334"
		d="M222,81h1zM246,88h1zM44,194h1zM163,217h1zM503,239h1zM425,254h1zM502,255h1zM499,268h1zM158,285h1zM94,336h1zM449,388h1zM189,406h1zM72,417h1z"
		stroke-width="1.0" />
	<path
		stroke="#ffffff"
		stroke-opacity="0.2627451"
		d="M223,81h1zM229,167h1zM112,234h1zM425,251h1zM174,299h1zM486,321h1zM155,348h1zM110,350h1zM466,369h1z"
		stroke-width="1.0" />
	<path
		stroke="#ffffff"
		stroke-opacity="0.16078432"
		d="M224,81h1zM84,122h1zM273,154h1zM246,168h1zM355,182h1zM286,270h1zM99,286h1zM405,333h1zM201,400h1zM412,411h1zM122,422h1z"
		stroke-width="1.0" />
	<path
		stroke="#ffffff"
		stroke-opacity="0.2509804"
		d="M157,82h1zM151,155h1zM342,189h1zM494,205h1zM108,250h1zM104,266h1zM170,315h1zM487,316h1zM269,359h1zM229,375h1zM34,395h1zM117,422h1z"
		stroke-width="1.0" />
	<path
		stroke="#ffffff"
		stroke-opacity="0.43529412"
		d="M158,82h1zM140,163h1zM45,191h1zM487,196h1zM500,219h1zM305,224h1zM261,231h1zM365,264h1zM42,402h1zM313,414h1zM87,420h1z"
		stroke-width="1.0" />
	<path
		stroke="#ffffff"
		stroke-opacity="0.5568628"
		d="M159,82h1zM72,137h1zM157,152h1zM142,161h1zM47,185h1zM341,190h1zM108,249h1zM104,265h1zM14,347h1zM217,388h1zM296,405h1zM406,413h1z"
		stroke-width="1.0" />
	<path
		stroke="#ffffff"
		stroke-opacity="0.7764706"
		d="M161,82h1zM261,162h1zM431,171h1zM392,172h1zM377,175h1zM390,238h1zM488,311h1zM481,337h1zM22,376h1zM402,414h1zM374,420h1z"
		stroke-width="1.0" />
	<path
		stroke="#ffffff"
		stroke-opacity="0.9372549"
		d="M163,82h1zM270,103h1zM61,155h1zM262,161h1zM406,171h1zM42,205h1zM320,207h1zM319,208h1zM230,215h1zM38,221h1zM261,233h1zM34,237h1zM379,242h1zM261,259h1zM421,275h1zM96,294h1zM92,332h1zM97,343h1zM270,343h1zM98,344h1zM15,350h1zM233,366h1zM461,374h1zM455,381h1zM453,383h1zM279,386h1zM199,400h1zM197,401h1zM407,412h1zM156,416h1zM321,416h1zM141,419h1z"
		stroke-width="1.0" />
	<path
		stroke="#ffffff"
		stroke-opacity="0.95686275"
		d="M222,82h1zM99,110h1zM278,112h1zM283,135h1zM70,141h1zM195,148h1zM408,171h1zM437,172h1zM50,179h1zM260,231h1zM300,233h1zM297,239h1zM262,255h1zM291,255h1zM500,260h1zM135,261h1zM360,280h1zM495,282h1zM98,286h1zM15,349h1zM273,373h1zM31,390h1zM344,420h1z"
		stroke-width="1.0" />
	<path
		stroke="#ffffff"
		stroke-opacity="0.78431374"
		d="M224,82h1zM112,232h1zM108,248h1zM173,306h1zM272,371h1zM135,420h1zM122,421h1z"
		stroke-width="1.0" />
	<path
		stroke="#ffffff"
		stroke-opacity="0.5411765"
		d="M226,82h1zM260,95h1zM109,102h1zM417,170h1zM376,175h1zM461,178h1zM262,257h1zM100,281h1zM150,282h1zM20,290h1zM94,305h1zM410,316h1zM246,321h1zM92,326h1zM165,337h1zM97,342h1zM285,395h1zM173,412h1z"
		stroke-width="1.0" />
	<path
		stroke="#ffffff"
		stroke-opacity="0.2"
		d="M228,82h1zM281,143h1zM349,185h1zM122,196h1zM41,204h1zM37,220h1zM503,234h1zM370,252h1zM288,263h1zM362,353h1zM473,358h1zM47,406h1zM421,407h1zM180,410h1zM415,410h1zM324,418h1zM378,420h1z"
		stroke-width="1.0" />
	<path
		stroke="#ffffff"
		stroke-opacity="0.02745098"
		d="M229,82h1zM147,84h1zM237,84h1zM263,96h1zM68,141h1zM67,143h1zM227,167h1zM131,176h1zM49,177h1zM350,184h1zM494,204h1zM499,214h1zM133,259h1zM367,259h1zM499,271h1zM496,282h1zM495,287h1zM358,294h1zM16,303h1zM490,307h1zM171,310h1zM482,338h1zM269,339h1zM381,352h1zM373,353h1zM269,362h1zM23,380h1zM183,409h1zM181,410h1zM395,417h1zM149,419h1zM358,422h1z"
		stroke-width="1.0" />
	<path
		stroke="#ffffff"
		stroke-opacity="0.15294118"
		d="M153,83h1zM302,228h1zM503,233h1zM487,317h1zM93,331h1zM105,348h1zM387,351h1zM286,397h1zM303,410h1z"
		stroke-width="1.0" />
	<path
		stroke="#ffffff"
		stroke-opacity="0.4627451"
		d="M154,83h1zM140,87h1zM65,147h1zM409,170h1zM434,171h1zM132,173h1zM366,178h1zM491,201h1zM260,266h1zM159,285h1zM482,335h1z"
		stroke-width="1.0" />
	<path
		stroke="#ffffff"
		stroke-opacity="0.69803923"
		d="M155,83h1zM463,179h1zM119,204h1zM400,237h1zM294,245h1zM286,273h1zM17,304h1zM229,374h1zM136,420h1zM375,420h1z"
		stroke-width="1.0" />
	<path
		stroke="#ffffff"
		stroke-opacity="0.8666667"
		d="M156,83h1zM401,171h1zM52,173h1zM318,209h1zM317,210h1zM33,240h1zM424,244h1zM29,256h1zM286,274h1zM94,303h1zM92,330h1zM465,369h1zM210,393h1zM71,416h1zM390,417h1z"
		stroke-width="1.0" />
	<path
		stroke="#ffffff"
		stroke-opacity="0.9254902"
		d="M157,83h1zM134,90h1zM388,173h1zM174,215h1zM247,219h1zM113,226h1zM150,226h1zM109,242h1zM263,251h1zM105,258h1zM496,277h1zM416,294h1zM175,299h1zM172,310h1zM487,314h1zM410,319h1zM110,351h1zM148,351h1zM454,382h1zM451,385h1zM185,407h1zM394,416h1zM76,417h1zM151,417h1zM132,420h1z"
		stroke-width="1.0" />
	<path
		stroke="#ffffff"
		stroke-opacity="0.9607843"
		d="M158,83h1zM93,115h1zM82,126h1zM138,164h1zM423,171h1zM161,219h1zM154,223h1zM426,254h1zM364,264h1zM281,294h1zM17,306h1zM92,312h1zM15,321h1zM347,334h1zM123,353h1zM232,368h1zM216,388h1zM191,404h1zM398,415h1zM368,420h1z"
		stroke-width="1.0" />
	<path
		stroke="#ffffff"
		stroke-opacity="0.9843137"
		d="M159,83h1zM244,88h1zM137,89h1zM129,92h1zM127,93h1zM258,95h1zM158,151h1zM273,152h1zM272,153h1zM62,154h1zM57,163h1zM225,164h1zM415,171h2zM131,173h1zM129,176h1zM51,177h1zM469,183h1zM331,198h1zM43,202h1zM492,204h1zM39,218h1zM499,218h1zM246,219h1zM256,226h1zM147,229h1zM35,234h1zM421,240h1zM32,244h1zM31,250h1zM28,260h1zM27,266h1zM259,267h1zM498,269h1zM24,276h1zM361,276h1zM496,276h1zM144,277h1zM23,282h1zM255,283h1zM161,284h1zM418,288h1zM97,289h1zM177,291h1zM357,292h1zM19,298h1zM251,299h1zM414,304h1zM353,308h1zM92,311h1zM410,320h1zM405,336h1zM15,347h1zM395,348h1zM155,349h1zM472,357h1zM271,364h1zM460,375h1zM227,376h1zM222,382h1zM27,384h1zM285,394h1zM440,394h1zM207,395h1zM428,402h1zM299,406h1zM53,408h1zM174,411h1zM406,412h1zM384,418h1zM349,420h1zM363,420h1z"
		stroke-width="1.0" />
	<path
		stroke="#ffffff"
		stroke-opacity="0.98039216"
		d="M226,83h1zM132,91h1zM119,97h1zM91,117h1zM83,125h1zM204,151h1zM207,152h1zM247,167h1zM413,171h2zM417,171h2zM380,175h1zM454,176h1zM461,179h1zM464,180h1zM350,186h1zM47,188h1zM339,192h1zM40,212h1zM116,213h1zM36,228h1zM258,228h1zM112,229h1zM145,231h1zM108,245h1zM135,251h1zM261,258h1zM104,261h1zM260,262h1zM142,275h1zM143,276h1zM150,281h1zM419,284h1zM494,285h1zM492,292h1zM415,300h1zM94,302h1zM93,306h1zM173,307h1zM411,316h1zM349,324h1zM477,347h1zM476,349h1zM350,350h1zM475,352h1zM360,354h1zM468,364h1zM467,366h1zM220,384h1zM218,386h1zM205,396h1zM202,398h1zM300,407h1zM304,409h1zM306,410h1zM313,413h1zM73,416h1zM77,417h1zM96,420h1zM128,420h1zM348,420h1zM364,420h1z"
		stroke-width="1.0" />
	<path
		stroke="#ffffff"
		stroke-opacity="0.9529412"
		d="M227,83h1zM241,87h1zM125,94h1zM272,105h1zM282,120h1zM164,149h1zM58,161h1zM55,167h1zM424,171h1zM450,175h1zM123,190h1zM336,194h1zM121,195h1zM176,215h53zM389,238h1zM139,239h1zM426,249h1zM502,249h1zM501,255h1zM141,274h1zM285,278h1zM356,296h1zM352,312h1zM407,331h1zM480,339h1zM478,345h1zM21,373h1zM229,373h1zM443,392h1zM302,408h1z"
		stroke-width="1.0" />
	<path
		stroke="#ffffff"
		stroke-opacity="0.9137255"
		d="M228,83h1zM142,87h1zM100,109h1zM94,114h1zM216,158h1zM264,160h1zM224,164h1zM130,175h1zM365,179h1zM323,204h1zM262,235h1zM411,237h1zM418,239h1zM294,246h1zM135,249h1zM500,261h1zM137,268h1zM99,283h1zM419,283h1zM418,287h1zM275,318h1zM484,325h1zM483,330h1zM402,341h1zM396,347h1zM15,351h1zM456,380h1zM435,398h1zM423,405h1zM52,408h1z"
		stroke-width="1.0" />
	<path
		stroke="#ffffff"
		stroke-opacity="0.83137256"
		d="M229,83h1zM228,166h1zM231,167h1zM447,174h1zM155,222h1zM35,231h1zM425,258h1zM500,263h1zM361,277h1zM147,280h1zM22,284h1zM14,331h1zM242,336h1zM238,352h1zM442,393h1zM183,408h1z"
		stroke-width="1.0" />
	<path
		stroke="#ffffff"
		stroke-opacity="0.654902"
		d="M230,83h1zM255,165h1zM370,177h1zM44,195h1zM312,215h1zM299,234h1zM110,240h1zM421,241h1zM134,259h1zM102,272h1zM361,278h1zM177,285h1zM493,291h1zM356,299h1zM270,339h1zM368,354h1zM231,371h1zM220,385h1z"
		stroke-width="1.0" />
	<path
		stroke="#ffffff"
		stroke-opacity="0.3764706"
		d="M231,83h1zM176,148h1zM407,170h1zM336,193h1zM34,233h1zM135,246h1zM145,279h1zM419,280h1zM488,312h1zM163,344h1zM138,352h1zM274,378h1z"
		stroke-width="1.0" />
	<path
		stroke="#ffffff"
		stroke-opacity="0.03529412"
		d="M232,83h1zM135,88h1zM120,95h1zM267,99h1zM200,151h1zM168,215h1zM147,227h1zM297,236h1zM296,238h1zM424,257h1zM136,269h1zM140,275h1zM498,275h1zM144,279h1zM150,283h1zM153,284h1zM282,285h1zM176,289h1zM172,305h1zM168,321h1zM165,333h1zM243,337h1zM106,348h1zM239,353h1zM472,360h1zM275,381h1zM30,391h1zM85,420h1zM125,422h1zM355,422h1z"
		stroke-width="1.0" />
	<path
		stroke="#ffffff"
		stroke-opacity="0.1254902"
		d="M149,84h1zM122,94h1zM101,107h1zM353,183h1zM496,281h1zM169,318h1zM347,342h1zM376,353h1zM221,385h1zM437,398h1zM401,415h1zM133,421h1z"
		stroke-width="1.0" />
	<path
		stroke="#ffffff"
		stroke-opacity="0.34117648"
		d="M150,84h1zM459,177h1zM122,195h1zM318,208h1zM367,257h1zM275,315h1zM351,319h1zM379,353h1z"
		stroke-width="1.0" />
	<path
		stroke="#ffffff"
		stroke-opacity="0.6784314"
		d="M151,84h1zM91,116h1zM284,131h1zM272,154h1zM432,171h1zM113,228h1zM403,237h1zM134,253h1zM29,255h1zM25,271h1zM99,284h1zM21,287h1zM247,317h1zM270,340h1zM349,348h1zM476,351h1zM117,352h1zM20,372h1zM356,421h1z"
		stroke-width="1.0" />
	<path
		stroke="#ffffff"
		stroke-opacity="0.89411765"
		d="M152,84h1zM132,172h1zM46,190h1zM340,191h1zM45,193h1zM119,203h1zM307,222h1zM305,225h1zM263,238h1zM426,252h1zM364,265h1zM151,282h1zM96,295h1zM175,298h1zM170,319h1zM147,351h1zM450,386h1zM438,396h1zM293,402h1zM317,415h1zM341,420h1zM106,421h1z"
		stroke-width="1.0" />
	<path
		stroke="#ffffff"
		stroke-opacity="0.9647059"
		d="M232,84h1zM107,104h1zM103,107h1zM72,138h1zM199,149h1zM269,156h1zM59,159h1zM409,171h1zM384,174h1zM366,179h1zM120,198h1zM496,211h1zM502,232h1zM263,239h1zM423,242h1zM136,245h1zM368,253h1zM106,254h1zM102,270h1zM159,284h1zM417,291h1zM277,310h1zM379,354h1zM236,358h1zM470,361h1zM464,370h1zM211,392h1zM179,409h1zM315,414h1zM334,419h1zM94,420h1zM130,420h1zM345,420h1zM367,420h1z"
		stroke-width="1.0" />
	<path
		stroke="#ffffff"
		stroke-opacity="0.7490196"
		d="M233,84h1zM97,111h1zM191,148h1zM238,168h3zM162,218h1zM497,274h1zM96,296h1zM279,300h1zM170,318h1zM376,354h1zM434,399h1zM314,414h1z"
		stroke-width="1.0" />
	<path
		stroke="#ffffff"
		stroke-opacity="0.41960785"
		d="M234,84h1zM55,165h1zM244,168h1zM408,170h1zM134,261h1zM269,349h1zM392,349h1zM269,353h1zM428,403h1z"
		stroke-width="1.0" />
	<path
		stroke="#ffffff"
		stroke-opacity="0.21176471"
		d="M145,85h1zM85,121h1zM182,148h1zM404,170h1zM155,221h1zM502,256h1zM276,311h1zM13,339h1zM14,351h1zM438,397h1zM43,403h1zM86,420h1z"
		stroke-width="1.0" />
	<path
		stroke="#ffffff"
		stroke-opacity="0.50980395"
		d="M147,85h1zM106,104h1zM284,132h1zM269,157h1zM420,170h1zM352,184h1zM419,240h1zM257,278h1zM494,287h1zM253,294h1zM274,319h1zM92,325h1zM228,376h1z"
		stroke-width="1.0" />
	<path
		stroke="#ffffff"
		stroke-opacity="0.7529412"
		d="M148,85h1zM133,90h1zM257,276h1zM486,318h1zM273,325h1zM165,338h1zM240,345h1zM237,356h1zM405,413h1z"
		stroke-width="1.0" />
	<path
		stroke="#ffffff"
		stroke-opacity="0.92156863"
		d="M149,85h1zM262,97h1zM194,148h1zM259,163h1zM427,171h1zM442,173h1zM466,181h1zM231,215h1zM249,220h1zM302,230h1zM383,240h1zM367,256h1zM135,262h1zM497,273h1zM101,274h1zM492,293h1zM414,303h1zM276,313h1zM171,315h1zM350,321h1zM167,331h1zM241,339h1zM237,355h1zM235,362h1zM430,401h1zM427,403h1zM171,412h1zM404,413h1zM68,415h1zM92,420h1z"
		stroke-width="1.0" />
	<path
		stroke="#ffffff"
		stroke-opacity="0.94509804"
		d="M235,85h1zM146,86h1zM251,91h1zM274,107h1zM75,134h1zM169,148h1zM219,160h1zM256,164h1zM137,165h1zM425,171h1zM379,175h1zM491,202h1zM175,215h1zM168,216h1zM311,217h1zM163,218h1zM115,219h1zM157,221h1zM112,230h1zM140,237h1zM386,239h1zM108,246h1zM135,250h1zM425,259h1zM104,262h1zM258,271h1zM100,278h1zM254,287h1zM250,303h1zM246,319h1zM93,336h1zM479,343h1zM100,346h1zM17,361h1zM234,364h1zM292,401h1zM49,406h1zM310,412h1z"
		stroke-width="1.0" />
	<path
		stroke="#ffffff"
		stroke-opacity="0.5137255"
		d="M237,85h1zM412,170h1zM174,300h1zM249,310h1zM245,326h1zM365,421h1z"
		stroke-width="1.0" />
	<path
		stroke="#ffffff"
		stroke-opacity="0.32156864"
		d="M238,85h1zM284,125h1zM178,148h1zM37,221h1zM33,237h1zM25,269h1zM279,299h1zM93,332h1zM269,358h1zM234,366h1zM407,413h1zM156,417h1z"
		stroke-width="1.0" />
	<path
		stroke="#ffffff"
		stroke-opacity="0.19215687"
		d="M239,85h1zM183,148h2zM198,150h1zM216,159h1zM365,178h1zM110,243h1zM134,249h1zM501,261h1zM151,349h1zM477,350h1zM136,352h1zM121,422h1z"
		stroke-width="1.0" />
	<path
		stroke="#ffffff"
		stroke-opacity="0.015686275"
		d="M240,85h1zM73,134h1zM66,144h1zM172,149h1zM211,156h1zM430,170h1zM130,178h1zM348,185h1zM488,196h1zM321,204h1zM320,205h1zM119,209h1zM234,214h1zM38,215h1zM154,221h1zM503,228h1zM34,231h1zM141,233h1zM392,239h1zM292,247h1zM424,247h1zM108,251h1zM133,252h1zM288,260h1zM26,263h1zM261,264h1zM104,267h1zM420,273h1zM284,276h1zM22,279h1zM148,282h1zM100,283h1zM281,288h1zM280,292h1zM18,295h1zM415,295h1zM277,304h1zM276,308h1zM411,311h1zM273,320h1zM484,330h1zM270,333h1zM483,335h1zM269,338h1zM163,342h1zM478,349h1zM470,364h1zM231,373h1zM291,402h1zM408,413h1zM313,415h1zM317,416h1zM379,420h1zM354,422h1z"
		stroke-width="1.0" />
	<path
		stroke="#ffffff"
		stroke-opacity="0.019607844"
		d="M141,86h1zM99,108h1zM94,112h1zM78,128h1zM64,147h1zM277,150h1zM61,152h1zM59,156h1zM146,159h1zM215,159h1zM127,184h1zM477,186h1zM481,189h1zM489,197h1zM40,206h1zM317,208h1zM316,209h1zM310,216h1zM116,219h1zM36,222h1zM112,235h1zM32,238h1zM30,247h1zM503,253h1zM28,254h1zM24,270h1zM137,271h1zM257,280h1zM20,286h1zM416,289h1zM253,296h1zM492,298h1zM412,305h1zM249,312h1zM488,314h1zM93,316h1zM408,321h1zM272,324h1zM245,328h1zM399,343h1zM359,352h1zM372,353h1zM455,383h1zM27,387h1zM278,387h1zM445,392h1zM211,394h1zM436,399h1zM311,414h1zM64,415h1zM403,415h1zM68,416h1zM134,421h1z"
		stroke-width="1.0" />
	<path
		stroke="#ffffff"
		stroke-opacity="0.20784314"
		d="M142,86h1zM255,92h1zM259,94h1zM277,109h1zM389,172h1zM447,173h1zM315,211h1zM375,246h1zM362,277h1zM418,283h1zM96,298h1zM94,308h1zM13,331h1zM384,352h1zM120,422h1z"
		stroke-width="1.0" />
	<path
		stroke="#ffffff"
		stroke-opacity="0.8352941"
		d="M145,86h1zM87,120h1zM257,164h1zM126,183h1zM479,189h1zM502,231h1zM31,247h1zM501,256h1zM27,263h1zM423,266h1zM139,272h1zM23,279h1zM149,281h1zM93,308h1zM14,339h1zM386,352h1zM408,412h1zM328,418h1zM120,421h1z"
		stroke-width="1.0" />
	<path
		stroke="#ffffff"
		stroke-opacity="0.9411765"
		d="M238,86h1zM115,99h1zM283,123h1zM476,187h1zM500,222h1zM143,233h1zM111,235h1zM30,253h1zM426,253h1zM26,269h1zM362,273h1zM145,278h1zM158,284h1zM22,285h1zM491,298h1zM92,313h1zM482,333h1zM160,347h1zM474,354h1zM224,380h1zM452,384h1zM281,389h1zM46,404h1zM189,405h1zM187,406h1zM421,406h1zM182,408h1zM167,413h1zM72,416h1zM389,417h1zM146,418h1zM343,420h1z"
		stroke-width="1.0" />
	<path
		stroke="#ffffff"
		stroke-opacity="0.3882353"
		d="M241,86h1zM270,102h1zM155,153h1zM54,167h1zM396,171h1zM176,214h53zM358,291h1zM277,307h1zM354,307h1zM350,323h1zM269,345h1zM478,347h1zM236,361h1zM21,375h1zM292,402h1zM306,411h1zM77,418h1z"
		stroke-width="1.0" />
	<path
		stroke="#ffffff"
		stroke-opacity="0.08235294"
		d="M139,87h1zM108,102h1zM98,109h1zM283,139h1zM217,160h1zM41,203h1zM37,219h1zM256,224h1zM143,278h1zM495,286h1zM176,290h1zM416,290h1zM357,297h1zM277,305h1zM412,306h1zM244,331h1zM13,344h1zM240,347h1zM354,351h1zM129,352h2zM16,362h1zM209,395h1zM285,396h1zM289,400h1zM185,408h1zM79,419h1z"
		stroke-width="1.0" />
	<path
		stroke="#ffffff"
		stroke-opacity="0.96862745"
		d="M143,87h1zM255,93h1zM123,95h1zM281,118h1zM142,160h1zM253,165h1zM422,171h1zM128,178h1zM356,183h1zM118,206h1zM494,207h1zM244,218h1zM114,222h1zM253,223h1zM149,227h1zM110,238h1zM295,244h1zM499,266h1zM287,271h1zM283,287h1zM413,307h1zM486,317h1zM409,323h1zM273,326h1zM167,332h1zM92,333h1zM406,334h1zM481,336h1zM157,348h1zM152,350h1zM390,351h1zM22,375h1zM23,377h1zM25,381h1zM414,409h1zM61,412h1zM66,414h1zM393,416h1zM346,420h1z"
		stroke-width="1.0" />
	<path
		stroke="#ffffff"
		stroke-opacity="0.6392157"
		d="M243,87h1zM190,148h1zM64,149h1zM125,186h1zM134,252h1zM286,272h1zM282,288h1zM278,304h1zM352,315h1zM270,338h1zM369,354h1zM288,398h1zM178,410h1z"
		stroke-width="1.0" />
	<path
		stroke="#ffffff"
		stroke-opacity="0.20392157"
		d="M244,87h1zM100,108h1zM278,148h1zM165,150h1zM254,166h1zM118,211h1zM33,236h1zM29,252h1zM25,268h1zM284,279h1zM21,284h1zM280,295h1zM485,325h1zM168,414h1zM75,418h1z"
		stroke-width="1.0" />
	<path
		stroke="#ffffff"
		stroke-opacity="0.30588236"
		d="M137,88h1zM134,89h1zM446,173h1zM480,189h1zM118,210h1zM39,213h1zM35,229h1zM49,407h1zM325,418h1z"
		stroke-width="1.0" />
	<path
		stroke="#ffffff"
		stroke-opacity="0.72156864"
		d="M138,88h1zM282,119h1zM66,146h1zM173,148h1zM313,214h1zM499,217h1zM147,228h1zM260,230h1zM406,237h1zM137,242h1zM134,255h1zM287,268h1zM414,302h1zM485,322h1zM480,341h1z"
		stroke-width="1.0" />
	<path
		stroke="#ffffff"
		stroke-opacity="0.007843138"
		d="M132,89h1zM128,91h1zM117,96h1zM103,105h1zM282,116h1zM85,120h1zM84,121h1zM283,140h1zM207,154h1zM212,157h1zM253,167h1zM369,176h1zM45,188h1zM336,192h1zM42,199h1zM121,200h1zM161,217h1zM500,217h1zM502,223h1zM143,231h1zM33,234h1zM29,250h1zM503,254h1zM501,263h1zM287,265h1zM25,266h1zM499,272h1zM258,277h1zM497,279h1zM283,281h1zM21,282h1zM176,288h1zM495,288h1zM99,289h1zM254,293h1zM414,298h1zM172,304h1zM250,309h1zM410,314h1zM168,320h1zM246,325h1zM166,329h1zM271,329h1zM405,332h1zM403,337h1zM13,346h1zM268,348h1zM268,349h1zM268,350h1zM268,351h1zM268,352h1zM268,353h1zM392,348h1zM109,349h1zM146,350h1zM477,351h1zM380,352h1zM371,353h1zM468,367h1zM20,375h1zM272,375h1zM456,382h1zM454,384h1zM452,386h1zM28,389h1zM215,391h1zM32,394h1zM33,395h1zM210,395h1zM37,399h1zM197,403h1zM430,403h1zM426,405h1zM304,411h1zM406,414h1zM154,418h1zM340,421h1z"
		stroke-width="1.0" />
	<path
		stroke="#ffffff"
		stroke-opacity="0.49803922"
		d="M248,89h1zM93,114h1zM168,149h1zM163,150h1zM235,168h1zM421,170h1zM385,173h1zM130,176h1zM350,185h1zM311,216h1zM296,240h1zM96,297h1zM485,324h1zM22,377h1zM224,381h1zM95,421h1zM129,421h1z"
		stroke-width="1.0" />
	<path
		stroke="#ffffff"
		stroke-opacity="0.24705882"
		d="M249,89h1zM186,148h1zM194,149h1zM441,172h1zM375,175h1zM503,235h1zM416,239h1zM366,261h1zM20,289h1zM281,290h1zM470,363h1zM425,405h1zM312,414h1zM104,422h1z"
		stroke-width="1.0" />
	<path
		stroke="#ffffff"
		stroke-opacity="0.05882353"
		d="M250,89h1zM93,113h1zM284,124h1zM143,161h1zM386,172h1zM469,181h1zM44,192h1zM40,207h1zM119,208h1zM36,223h1zM114,228h1zM140,235h1zM32,239h1zM414,239h1zM31,244h1zM503,251h1zM28,255h1zM135,266h1zM287,266h1zM24,271h1zM20,287h1zM489,310h1zM271,330h1zM483,334h1zM350,348h1zM382,352h1zM464,372h1zM272,374h1zM274,379h1zM39,400h1zM44,404h1zM301,409h1zM327,419h1z"
		stroke-width="1.0" />
	<path
		stroke="#ffffff"
		stroke-opacity="0.22352941"
		d="M131,90h1zM170,149h1zM466,180h1zM470,182h1zM120,202h1zM40,209h1zM36,225h1zM141,234h1zM292,249h1zM489,309h1zM162,345h1zM81,419h1zM119,422h1z"
		stroke-width="1.0" />
	<path
		stroke="#ffffff"
		stroke-opacity="0.53333336"
		d="M132,90h1zM67,144h1zM397,171h1zM380,174h1zM113,229h1zM258,273h1zM254,289h1zM493,292h1zM414,300h1zM16,308h1zM218,387h1zM291,401h1z"
		stroke-width="1.0" />
	<path
		stroke="#ffffff"
		stroke-opacity="0.9882353"
		d="M248,90h1zM253,92h1zM112,101h1zM271,104h1zM276,110h1zM280,116h1zM89,119h1zM86,122h1zM281,140h1zM280,142h1zM196,148h1zM275,150h1zM209,153h1zM214,156h1zM260,162h1zM227,165h1zM449,175h1zM125,184h1zM124,186h1zM474,186h1zM344,189h1zM122,192h1zM335,195h1zM41,209h1zM117,209h1zM313,215h1zM306,224h1zM37,225h1zM113,225h1zM142,235h1zM262,236h1zM33,241h1zM109,241h1zM380,241h1zM370,250h1zM105,257h1zM290,259h1zM135,260h1zM425,260h1zM138,269h1zM25,273h1zM101,273h1zM286,275h1zM421,276h1zM20,292h1zM416,295h1zM16,311h1zM412,311h1zM247,315h1zM15,323h1zM408,327h1zM243,331h1zM271,337h1zM270,344h1zM399,345h1zM163,346h1zM398,346h1zM239,347h1zM356,353h1zM226,377h1zM221,383h1zM219,385h1zM28,386h1zM282,390h1zM445,390h1zM444,391h1zM33,392h1zM34,393h1zM208,394h1zM287,396h1zM437,396h1zM195,402h1zM181,408h1zM416,408h1zM326,417h1zM81,418h1zM330,418h1zM379,419h1zM97,420h1zM127,420h1zM350,420h1zM362,420h1z"
		stroke-width="1.0" />
	<path
		stroke="#ffffff"
		stroke-opacity="0.6509804"
		d="M250,90h1zM82,125h1zM147,157h1zM145,230h1zM264,245h1zM357,294h1zM489,307h1zM353,310h1zM485,323h1zM161,346h1zM373,354h1zM270,362h1zM31,391h1zM169,413h1zM358,421h1z"
		stroke-width="1.0" />
	<path
		stroke="#ffffff"
		stroke-opacity="0.35686275"
		d="M251,90h1zM371,250h1zM258,274h1zM254,290h1zM19,293h1zM250,306h1zM354,308h1zM350,324h1zM119,352h1zM360,353h1zM17,364h1zM197,402h1zM179,410h1z"
		stroke-width="1.0" />
	<path
		stroke="#ffffff"
		stroke-opacity="0.22745098"
		d="M129,91h1zM95,112h1zM61,153h1zM151,224h1zM395,238h1zM410,238h1zM32,241h1zM28,257h1zM289,258h1zM24,273h1zM15,312h1zM93,314h1zM271,331h1zM13,333h1zM13,337h1zM442,394h1zM66,415h1zM145,419h1z"
		stroke-width="1.0" />
	<path
		stroke="#ffffff"
		stroke-opacity="0.68235296"
		d="M130,91h1zM90,117h1zM242,168h1zM367,178h1zM117,212h1zM248,219h1zM501,224h1zM423,243h1zM92,328h1zM482,334h1zM74,417h1z"
		stroke-width="1.0" />
	<path
		stroke="#ffffff"
		stroke-opacity="0.9098039"
		d="M131,91h1zM95,113h1zM280,143h1zM428,171h1zM393,172h1zM472,184h1zM43,200h1zM315,212h1zM39,216h1zM35,232h1zM394,237h1zM31,248h1zM27,264h1zM423,267h1zM23,280h1zM157,284h1zM283,286h1zM178,287h1zM493,289h1zM19,296h1zM280,297h1zM279,302h1zM93,307h1zM15,318h1zM164,342h1zM476,350h1zM472,358h1zM280,388h1zM215,389h1zM204,397h1zM56,410h1zM108,421h5z"
		stroke-width="1.0" />
	<path
		stroke="#ffffff"
		stroke-opacity="0.7882353"
		d="M252,91h1zM50,178h1zM460,178h1zM314,213h1zM14,329h1zM406,333h1zM393,349h1zM17,362h1zM447,389h1zM38,398h1z"
		stroke-width="1.0" />
	<path
		stroke="#ffffff"
		stroke-opacity="0.7607843"
		d="M128,92h1zM254,92h1zM126,93h1zM150,155h1zM57,162h1zM136,167h1zM452,175h1zM501,225h1zM28,259h1zM261,260h1zM178,286h1zM484,327h1zM391,350h1zM363,354h1zM295,404h1zM165,414h1z"
		stroke-width="1.0" />
	<path
		stroke="#ffffff"
		stroke-opacity="0.05490196"
		d="M256,92h1zM150,156h1zM266,160h1zM51,173h1zM370,176h1zM345,187h1zM331,196h1zM326,200h1zM115,224h1zM502,224h1zM35,228h1zM503,230h1zM111,240h1zM110,244h1zM134,248h1zM133,253h1zM107,256h1zM27,260h1zM106,260h1zM103,272h1zM23,276h1zM485,326h1zM269,340h1zM471,362h1zM309,413h1zM71,417h1zM356,422h1z"
		stroke-width="1.0" />
	<path
		stroke="#ffffff"
		stroke-opacity="0.14117648"
		d="M124,93h1zM281,115h1zM324,202h1zM323,203h1zM238,215h1zM113,231h1zM389,239h1zM276,310h1zM352,316h1zM272,326h1zM242,340h1zM16,361h1zM294,404h1z"
		stroke-width="1.0" />
	<path
		stroke="#ffffff"
		stroke-opacity="0.28235295"
		d="M257,93h1zM287,267h1zM139,273h1zM245,327h1zM270,365h1zM448,389h1zM108,422h1zM112,422h1z"
		stroke-width="1.0" />
	<path
		stroke="#ffffff"
		stroke-opacity="0.8392157"
		d="M122,95h1zM144,159h1zM47,186h1zM234,215h1zM381,241h1zM19,295h1zM355,302h1zM141,352h1zM132,353h1zM206,396h1zM192,404h1zM50,407h1zM103,421h1z"
		stroke-width="1.0" />
	<path
		stroke="#ffffff"
		stroke-opacity="0.90588236"
		d="M259,95h1zM213,156h1zM451,175h1zM173,215h1zM232,215h1zM371,249h1zM287,270h1zM97,290h1zM243,332h1zM94,338h1zM239,348h1zM35,395h1zM36,396h1zM432,400h1zM425,404h1zM297,405h1zM177,410h1zM385,418h1zM380,419h1zM371,420h1z"
		stroke-width="1.0" />
	<path
		stroke="#ffffff"
		stroke-opacity="0.85490197"
		d="M120,96h1zM74,135h1zM172,148h1zM192,148h1zM145,158h1zM493,205h1zM239,216h1zM415,238h1zM372,248h1zM262,256h1zM290,258h1zM260,264h1zM256,280h1zM153,283h1zM252,296h1zM14,334h1zM14,337h1zM159,347h1zM18,365h1zM320,416h1zM333,419h1z"
		stroke-width="1.0" />
	<path
		stroke="#ffffff"
		stroke-opacity="0.26666668"
		d="M262,96h1zM77,130h1zM180,148h1zM250,167h1zM233,168h1zM45,190h1zM247,218h1zM297,237h1zM421,271h1zM146,280h1zM273,322h1zM148,350h1zM474,356h1zM282,392h1zM35,396h1zM37,398h1zM139,420h1zM115,422h1z"
		stroke-width="1.0" />
	<path
		stroke="#ffffff"
		stroke-opacity="0.3529412"
		d="M117,97h1zM283,121h1zM78,129h1zM177,148h1zM169,149h1zM256,165h1zM425,170h1zM489,198h1zM175,214h1zM259,228h1zM393,238h1zM503,240h1zM405,334h1zM482,336h1zM401,341h1z"
		stroke-width="1.0" />
	<path
		stroke="#ffffff"
		stroke-opacity="0.7176471"
		d="M118,97h1zM166,149h1zM399,171h1zM131,174h1zM123,191h1zM134,256h1zM94,304h1zM405,335h1zM398,345h1zM108,350h1zM21,374h1zM441,394h1zM203,398h1zM153,417h1zM148,418h1z"
		stroke-width="1.0" />
	<path
		stroke="#ffffff"
		stroke-opacity="0.5058824"
		d="M263,97h1zM227,166h1zM144,278h1zM14,322h1z"
		stroke-width="1.0" />
	<path
		stroke="#ffffff"
		stroke-opacity="0.16862746"
		d="M264,97h1zM282,117h1zM86,120h1zM283,138h1zM206,153h1zM119,206h1zM232,214h1zM257,225h1zM379,243h1zM98,291h1zM176,291h1zM348,332h1zM95,338h1zM38,399h1zM335,420h1zM371,421h1z"
		stroke-width="1.0" />
	<path
		stroke="#ffffff"
		stroke-opacity="0.03137255"
		d="M114,98h1zM270,101h1zM275,106h1zM282,142h1zM209,155h1zM141,163h1zM55,164h1zM483,191h1zM43,196h1zM246,217h1zM503,229h1zM261,230h1zM382,242h1zM380,243h1zM371,251h1zM503,252h1zM263,257h1zM286,269h1zM259,273h1zM362,278h1zM255,289h1zM494,291h1zM175,294h1zM95,305h1zM251,305h1zM94,310h1zM247,321h1zM164,337h1zM401,340h1zM348,345h1zM153,348h1zM368,353h1zM475,355h1zM474,357h1zM236,362h1zM31,392h1zM296,406h1zM424,406h1zM320,417h1z"
		stroke-width="1.0" />
	<path
		stroke="#ffffff"
		stroke-opacity="0.3647059"
		d="M115,98h1zM307,221h1zM113,230h1zM142,233h1zM388,239h1zM385,240h1zM262,258h1zM366,260h1zM413,304h1zM409,320h1zM269,344h1z"
		stroke-width="1.0" />
	<path
		stroke="#ffffff"
		stroke-opacity="0.6901961"
		d="M116,98h1zM111,101h1zM154,153h1zM465,180h1zM497,212h1zM254,223h1zM148,227h1zM404,237h1zM387,239h1zM290,257h1zM499,267h1zM351,350h1zM270,361h1zM233,367h1zM143,419h1z"
		stroke-width="1.0" />
	<path
		stroke="#ffffff"
		stroke-opacity="0.14509805"
		d="M113,99h1zM88,118h1zM161,151h1zM221,163h1zM378,174h1zM337,192h1zM117,215h1zM258,226h1zM397,238h1zM296,239h1zM503,248h1zM164,339h1zM163,343h1zM101,422h1z"
		stroke-width="1.0" />
	<path
		stroke="#ffffff"
		stroke-opacity="0.91764706"
		d="M265,99h1zM273,106h1zM170,148h1zM53,171h1zM404,171h1zM374,176h1zM462,179h1zM470,183h1zM120,199h1zM252,222h1zM299,235h1zM426,250h1zM140,273h1zM257,275h1zM253,291h1zM95,299h1zM415,299h1zM249,307h1zM488,309h1zM92,314h1zM411,315h1zM245,323h1zM168,326h1zM272,329h1zM228,375h1zM43,402h1zM63,413h1zM80,418h1zM342,420h1z"
		stroke-width="1.0" />
	<path
		stroke="#ffffff"
		stroke-opacity="0.49019608"
		d="M266,99h1zM272,104h1zM410,170h1zM129,178h1zM250,220h1zM32,242h1zM28,258h1zM92,323h1zM92,324h1zM14,348h1zM390,350h1zM366,421h1z"
		stroke-width="1.0" />
	<path
		stroke="#ffffff"
		stroke-opacity="0.3372549"
		d="M112,100h1zM59,157h1zM473,184h1zM320,206h1zM319,207h1zM166,216h1zM423,264h1zM172,308h1zM93,313h1zM347,336h1zM160,346h1zM430,402h1zM182,409h1z"
		stroke-width="1.0" />
	<path
		stroke="#ffffff"
		stroke-opacity="0.6862745"
		d="M267,100h1zM274,152h1zM214,157h1zM439,172h1zM401,237h1zM134,258h1zM364,267h1zM18,299h1zM95,300h1zM243,333h1zM347,335h1zM150,350h1zM200,400h1zM188,406h1z"
		stroke-width="1.0" />
	<path
		stroke="#ffffff"
		stroke-opacity="0.8039216"
		d="M268,101h1zM59,158h1zM129,177h1zM489,199h1zM409,237h1zM492,295h1zM18,300h1zM154,349h1zM129,353h2zM377,354h1zM339,420h1zM102,421h1z"
		stroke-width="1.0" />
	<path
		stroke="#ffffff"
		stroke-opacity="0.27058825"
		d="M269,101h1zM405,170h1zM372,176h1zM425,252h1zM259,270h1zM169,319h1zM103,347h1zM120,352h1zM468,366h1zM226,379h1zM432,401h1zM394,417h1zM106,422h1zM114,422h1z"
		stroke-width="1.0" />
	<path
		stroke="#ffffff"
		stroke-opacity="0.81960785"
		d="M108,103h1zM88,119h1zM277,148h1zM43,199h1zM109,243h1zM425,246h1zM105,259h1zM496,279h1zM14,340h1zM401,342h1zM151,350h1zM194,403h1zM175,411h1z"
		stroke-width="1.0" />
	<path
		stroke="#ffffff"
		stroke-opacity="0.42745098"
		d="M271,103h1zM481,190h1zM102,273h1zM269,351h1zM462,374h1zM273,375h1zM283,393h1zM308,412h1zM397,416h1z"
		stroke-width="1.0" />
	<path
		stroke="#ffffff"
		stroke-opacity="0.2784314"
		d="M104,105h1zM468,181h1zM372,249h1zM291,252h1zM368,255h1zM98,290h1zM253,295h1zM173,303h1zM249,311h1zM247,318h1zM137,352h1zM361,353h1zM18,368h1zM293,403h1zM318,416h1zM107,422h1zM113,422h1z"
		stroke-width="1.0" />
	<path
		stroke="#ffffff"
		stroke-opacity="0.49411765"
		d="M273,105h1zM440,172h1zM482,191h1zM413,238h1zM500,264h1zM24,274h1zM141,275h1zM278,303h1zM486,319h1zM353,351h1zM15,355h1zM472,359h1zM19,370h1zM155,417h1z"
		stroke-width="1.0" />
	<path
		stroke="#ffffff"
		stroke-opacity="0.48235294"
		d="M103,106h1zM141,162h1zM33,238h1zM264,242h1zM264,247h1zM29,254h1zM25,270h1zM282,287h1zM93,333h1zM23,379h1zM216,389h1zM211,393h1z"
		stroke-width="1.0" />
	<path
		stroke="#ffffff"
		stroke-opacity="0.6666667"
		d="M102,107h1zM280,144h1zM133,171h1zM381,174h1zM114,224h1zM302,229h1zM502,230h1zM174,301h1zM170,317h1zM14,345h1zM140,352h1zM15,354h1zM323,417h1z"
		stroke-width="1.0" />
	<path
		stroke="#ffffff"
		stroke-opacity="0.34509805"
		d="M275,107h1zM49,179h1zM363,179h1zM317,209h1zM501,222h1zM300,232h1zM503,241h1zM376,245h1zM176,292h1z"
		stroke-width="1.0" />
	<path
		stroke="#ffffff"
		stroke-opacity="0.80784315"
		d="M101,108h1zM387,173h1zM396,237h1zM375,245h1zM98,287h1zM349,325h1zM407,329h1zM131,353h1zM19,369h1zM29,388h1zM172,412h1zM65,414h1z"
		stroke-width="1.0" />
	<path
		stroke="#ffffff"
		stroke-opacity="0.23529412"
		d="M276,108h1zM282,141h1zM226,166h1zM135,169h1zM427,170h1zM126,185h1zM344,188h1zM322,204h1zM306,222h1zM100,282h1zM166,331h1zM13,336h1zM118,422h1z"
		stroke-width="1.0" />
	<path
		stroke="#ffffff"
		stroke-opacity="0.13333334"
		d="M97,110h1zM267,159h1zM57,160h1zM299,233h1zM109,247h1zM284,278h1zM250,308h1zM246,324h1zM478,348h1zM237,359h1zM32,393h1zM300,408h1z"
		stroke-width="1.0" />
	<path
		stroke="#ffffff"
		stroke-opacity="0.70980394"
		d="M277,110h1zM162,150h1zM237,168h1zM448,174h1zM399,237h1zM30,251h1zM134,257h1zM26,267h1zM285,277h1zM16,309h1zM375,354h1zM271,368h1zM279,387h1z"
		stroke-width="1.0" />
	<path
		stroke="#ffffff"
		stroke-opacity="0.11764706"
		d="M96,111h1zM76,131h1zM62,151h1zM45,189h1zM340,190h1zM499,215h1zM165,216h1zM503,232h1zM137,240h1zM259,271h1zM255,287h1zM416,291h1zM492,297h1zM251,303h1zM412,307h1zM94,309h1zM93,315h1zM247,319h1zM408,323h1zM165,334h1zM243,335h1zM13,343h1zM349,347h1zM239,351h1zM123,352h1zM62,414h1zM391,418h1zM123,422h1z"
		stroke-width="1.0" />
	<path
		stroke="#ffffff"
		stroke-opacity="0.18431373"
		d="M279,112h1zM130,177h1zM47,184h1zM304,225h1zM396,238h1zM30,248h1zM422,267h1zM364,268h1zM416,292h1zM95,302h1zM278,302h1zM412,308h1zM350,325h1zM475,354h1z"
		stroke-width="1.0" />
	<path
		stroke="#ffffff"
		stroke-opacity="0.4"
		d="M94,113h1zM57,161h1zM450,174h1zM99,285h1zM486,320h1zM167,328h1zM269,346h1z"
		stroke-width="1.0" />
	<path
		stroke="#ffffff"
		stroke-opacity="0.7921569"
		d="M279,113h1zM281,117h1zM283,122h1zM345,188h1zM116,216h1zM494,286h1zM417,290h1zM97,291h1zM270,360h1zM468,365h1zM79,418h1z"
		stroke-width="1.0" />
	<path
		stroke="#ffffff"
		stroke-opacity="0.52156866"
		d="M280,114h1zM209,154h1zM483,192h1zM253,222h1zM143,232h1zM101,277h1zM280,296h1zM489,308h1zM355,352h1zM18,367h1zM184,408h1z"
		stroke-width="1.0" />
	<path
		stroke="#ffffff"
		stroke-opacity="0.5764706"
		d="M281,116h1zM196,149h1zM122,194h1zM39,214h1zM295,242h1zM101,346h1zM350,349h1zM222,383h1zM41,401h1zM186,407h1zM416,409h1zM127,421h1z"
		stroke-width="1.0" />
	<path
		stroke="#ffffff"
		stroke-opacity="0.16470589"
		d="M89,117h1zM451,174h1zM460,177h1zM49,178h1zM173,214h1zM424,260h1zM360,284h1zM495,285h1zM172,307h1zM171,311h1zM13,329h1zM397,345h1zM269,360h1z"
		stroke-width="1.0" />
	<path
		stroke="#ffffff"
		stroke-opacity="0.7294118"
		d="M89,118h1zM143,160h1zM378,243h1zM501,257h1zM489,306h1zM429,402h1zM62,413h1z"
		stroke-width="1.0" />
	<path
		stroke="#ffffff"
		stroke-opacity="0.36862746"
		d="M282,118h1zM125,187h1zM496,209h1zM237,215h1zM359,287h1zM17,302h1zM14,320h1zM113,351h1zM451,386h1zM439,396h1zM383,419h1z"
		stroke-width="1.0" />
	<path
		stroke="#ffffff"
		stroke-opacity="0.11372549"
		d="M87,119h1zM81,125h1zM171,149h1zM193,149h1zM214,158h1zM454,175h1zM357,181h1zM124,190h1zM503,249h1zM263,255h1zM424,259h1zM151,283h1zM494,290h1zM364,353h1zM235,364h1zM277,385h1zM281,391h1zM60,413h1zM146,419h1z"
		stroke-width="1.0" />
	<path
		stroke="#ffffff"
		stroke-opacity="0.12156863"
		d="M283,120h1zM52,171h1zM436,171h1zM44,193h1zM501,221h1zM407,238h1zM363,272h1zM498,274h1zM101,279h1zM359,288h1zM355,304h1zM351,320h1zM347,337h1zM347,338h1zM347,339h1zM347,340h1zM347,341h1z"
		stroke-width="1.0" />
	<path
		stroke="#ffffff"
		stroke-opacity="0.7647059"
		d="M86,121h1zM85,122h1zM83,124h1zM455,176h1zM32,243h1zM291,253h1zM24,275h1zM175,297h1zM14,328h1zM241,340h1zM163,345h1zM209,394h1z"
		stroke-width="1.0" />
	<path
		stroke="#ffffff"
		stroke-opacity="0.59607846"
		d="M81,126h1zM461,375h1zM154,417h1zM376,420h1zM361,421h1z"
		stroke-width="1.0" />
	<path
		stroke="#ffffff"
		stroke-opacity="0.5294118"
		d="M80,127h1zM189,148h1zM418,170h1zM308,220h1zM502,229h1zM109,245h1zM134,251h1zM105,261h1zM418,284h1zM92,321h1zM109,350h1zM348,421h1z"
		stroke-width="1.0" />
	<path
		stroke="#ffffff"
		stroke-opacity="0.40784314"
		d="M79,128h1zM74,134h1zM71,138h1zM188,148h1zM146,158h1zM138,239h1zM501,260h1zM494,288h1zM98,289h1zM357,296h1zM456,381h1zM443,393h1zM202,399h1zM176,411h1zM336,420h1zM377,420h1z"
		stroke-width="1.0" />
	<path
		stroke="#ffffff"
		stroke-opacity="0.7254902"
		d="M76,132h1zM73,136h1zM325,202h1zM281,293h1zM410,318h1zM404,337h1zM278,385h1zM190,405h1zM420,407h1zM332,419h1zM89,420h1zM338,420h1zM100,421h1z"
		stroke-width="1.0" />
	<path
		stroke="#ffffff"
		stroke-opacity="0.54901963"
		d="M75,133h1zM205,152h1zM207,153h1zM230,167h1zM382,241h1zM138,271h1zM497,276h1zM93,311h1zM242,337h1zM153,349h1zM238,353h1zM469,364h1zM57,411h1z"
		stroke-width="1.0" />
	<path
		stroke="#ffffff"
		stroke-opacity="0.29803923"
		d="M284,133h1zM53,169h1zM50,176h1zM46,187h1zM241,216h1zM157,220h1zM110,242h1zM503,244h1zM293,246h1zM106,258h1zM498,273h1zM102,274h1zM409,319h1zM242,339h1zM238,355h1zM210,394h1zM76,418h1z"
		stroke-width="1.0" />
	<path
		stroke="#ffffff"
		stroke-opacity="0.09411765"
		d="M72,136h1zM166,150h1zM204,152h1zM156,153h1zM228,167h1zM123,193h1zM119,207h1zM160,218h1zM115,223h1zM406,238h1zM111,239h1zM415,239h1zM135,245h1zM292,248h1zM290,254h1zM133,255h1zM133,256h1zM263,256h1zM365,265h1zM481,340h1zM357,352h1zM222,384h1zM198,402h1zM153,418h1zM147,419h1z"
		stroke-width="1.0" />
	<path
		stroke="#ffffff"
		stroke-opacity="0.5254902"
		d="M283,137h1zM265,160h1zM138,165h1zM413,170h1zM348,186h1zM124,189h1zM366,259h1zM498,271h1zM148,281h1zM17,303h1zM322,417h1zM82,419h1z"
		stroke-width="1.0" />
	<path
		stroke="#ffffff"
		stroke-opacity="0.21960784"
		d="M70,139h1zM395,171h1zM462,178h1zM121,199h1zM414,299h1zM272,327h1zM13,338h1zM96,340h1zM214,391h1zM52,409h1zM152,418h1zM342,421h1z"
		stroke-width="1.0" />
	<path
		stroke="#ffffff"
		stroke-opacity="0.8"
		d="M282,139h1zM201,150h1zM211,155h1zM245,218h1zM20,291h1zM413,306h1zM92,317h1zM93,335h1zM146,351h1zM34,394h1zM305,410h1zM309,412h1zM381,419h1z"
		stroke-width="1.0" />
	<path
		stroke="#ffffff"
		stroke-opacity="0.7058824"
		d="M70,140h1zM273,153h1zM263,161h1zM478,188h1zM42,203h1zM38,219h1zM257,226h1zM34,235h1zM134,254h1zM135,264h1zM278,305h1zM14,344h1zM18,366h1zM212,392h1zM287,397h1z"
		stroke-width="1.0" />
	<path
		stroke="#ffffff"
		stroke-opacity="0.47843137"
		d="M69,141h1zM422,170h1zM52,172h1zM356,182h1zM37,222h1zM288,264h1zM413,305h1zM284,394h1zM346,421h1z"
		stroke-width="1.0" />
	<path
		stroke="#ffffff"
		stroke-opacity="0.85882354"
		d="M281,141h1zM56,164h1zM226,165h1zM430,171h1zM368,178h1zM128,179h1zM127,181h1zM125,185h1zM321,206h1zM368,254h1zM419,282h1zM156,284h1zM415,298h1zM248,312h1zM411,314h1zM244,328h1zM14,335h1zM14,336h1zM240,344h1zM27,385h1zM395,416h1zM134,420h1z"
		stroke-width="1.0" />
	<path
		stroke="#ffffff"
		stroke-opacity="0.23921569"
		d="M68,142h1zM181,148h1zM495,207h1zM231,214h1zM285,274h1zM493,293h1zM390,418h1z"
		stroke-width="1.0" />
	<path
		stroke="#ffffff"
		stroke-opacity="0.6117647"
		d="M281,142h1zM501,259h1zM261,261h1zM414,301h1zM410,317h1zM406,332h1zM53,409h1zM337,420h1z"
		stroke-width="1.0" />
	<path
		stroke="#ffffff"
		stroke-opacity="0.29411766"
		d="M66,145h1zM179,148h1zM153,154h1zM426,170h1zM123,192h1zM316,210h1zM425,250h1zM254,291h1zM413,303h1zM250,307h1zM246,323h1zM29,389h1zM404,414h1z"
		stroke-width="1.0" />
	<path
		stroke="#ffffff"
		stroke-opacity="0.07058824"
		d="M280,145h1zM142,162h1zM153,222h1zM149,225h1zM294,243h1zM369,254h1zM260,267h1zM285,273h1zM256,283h1zM252,299h1zM276,309h1zM353,313h1zM275,314h1zM159,346h1zM351,349h1zM366,353h1zM467,368h1zM41,402h1zM429,403h1zM192,405h1zM413,411h1z"
		stroke-width="1.0" />
	<path
		stroke="#ffffff"
		stroke-opacity="0.34901962"
		d="M279,146h1zM63,150h1zM199,150h1zM384,173h1zM425,248h1zM425,255h1zM421,272h1zM101,278h1zM484,328h1zM457,380h1zM310,413h1z"
		stroke-width="1.0" />
	<path
		stroke="#ffffff"
		stroke-opacity="0.5921569"
		d="M278,147h1zM53,170h1zM156,221h1zM417,239h1zM422,269h1zM237,357h1zM219,386h1z"
		stroke-width="1.0" />
	<path
		stroke="#ffffff"
		stroke-opacity="0.4862745"
		d="M175,148h1zM249,167h1zM40,210h1zM36,226h1zM303,227h1zM422,268h1zM21,286h1zM409,321h1zM166,332h1zM240,346h1zM158,347h1zM118,352h1zM433,400h1zM170,413h1zM64,414h1zM166,414h1z"
		stroke-width="1.0" />
	<path
		stroke="#ffffff"
		stroke-opacity="0.19607843"
		d="M185,148h1zM208,154h1zM60,155h1zM224,165h1zM490,199h1zM114,227h1zM263,254h1zM106,259h1zM358,293h1zM274,318h1zM408,324h1zM13,340h1zM419,408h1zM160,416h1z"
		stroke-width="1.0" />
	<path
		stroke="#ffffff"
		stroke-opacity="0.32941177"
		d="M187,148h1zM268,158h1zM406,170h1zM425,249h1zM450,387h1zM343,421h1z"
		stroke-width="1.0" />
	<path
		stroke="#ffffff"
		stroke-opacity="0.827451"
		d="M165,149h1zM267,158h1zM254,165h1zM492,203h1zM496,210h1zM117,211h1zM39,215h1zM38,220h1zM142,234h1zM34,236h1zM30,252h1zM26,268h1zM246,320h1zM102,347h1zM277,383h1zM415,409h1zM168,413h1zM75,417h1zM142,419h1z"
		stroke-width="1.0" />
	<path
		stroke="#ffffff"
		stroke-opacity="0.627451"
		d="M167,149h1zM391,172h1zM358,290h1zM412,309h1zM348,331h1zM156,348h1zM370,354h1zM227,377h1zM387,418h1zM88,420h1zM353,421h1zM359,421h1z"
		stroke-width="1.0" />
	<path
		stroke="#ffffff"
		stroke-opacity="0.4117647"
		d="M195,149h1zM219,161h1zM488,197h1zM411,312h1zM15,313h1zM169,320h1zM269,347h1zM14,349h1zM269,354h1zM414,410h1z"
		stroke-width="1.0" />
	<path
		stroke="#ffffff"
		stroke-opacity="0.7019608"
		d="M197,149h1zM222,163h1zM235,215h1zM405,237h1zM422,270h1zM282,289h1zM15,315h1zM14,326h1zM437,397h1zM124,421h1z"
		stroke-width="1.0" />
	<path
		stroke="#ffffff"
		stroke-opacity="0.4509804"
		d="M276,150h1zM149,156h1zM215,158h1zM58,159h1zM453,175h1zM111,237h1zM392,238h1zM289,260h1zM237,358h1zM436,398h1zM138,420h1z"
		stroke-width="1.0" />
	<path
		stroke="#ffffff"
		stroke-opacity="0.8509804"
		d="M63,151h1zM220,161h1zM135,168h1zM118,207h1zM310,218h1zM395,237h1zM410,237h1zM359,286h1zM14,333h1zM162,346h1zM147,418h1zM373,420h1z"
		stroke-width="1.0" />
	<path
		stroke="#ffffff"
		stroke-opacity="0.75686276"
		d="M159,151h1zM217,159h1zM58,160h1zM221,162h1zM40,211h1zM251,221h1zM36,227h1zM421,274h1zM253,292h1zM174,302h1zM249,308h1zM171,313h1zM245,324h1zM477,348h1zM33,393h1z"
		stroke-width="1.0" />
	<path
		stroke="#ffffff"
		stroke-opacity="0.39215687"
		d="M160,151h1zM363,271h1zM362,275h1zM273,323h1zM406,331h1zM98,343h1zM269,356h1zM455,382h1zM454,383h1zM302,409h1z"
		stroke-width="1.0" />
	<path
		stroke="#ffffff"
		stroke-opacity="0.25490198"
		d="M202,151h1zM383,173h1zM492,202h1zM136,243h1zM378,353h1zM20,373h1zM458,379h1zM54,410h1z"
		stroke-width="1.0" />
	<path
		stroke="#ffffff"
		stroke-opacity="0.56078434"
		d="M275,151h1zM43,198h1zM38,218h1zM297,238h1zM161,285h1zM173,305h1zM272,328h1zM48,406h1zM363,421h1z"
		stroke-width="1.0" />
	<path
		stroke="#ffffff"
		stroke-opacity="0.5372549"
		d="M62,152h1zM414,170h1zM117,213h1zM236,215h1zM380,242h1zM370,251h1zM502,252h1zM261,262h1zM250,305h1zM474,355h1zM223,382h1zM299,407h1zM159,416h1zM73,417h1zM96,421h1zM128,421h1zM364,421h1z"
		stroke-width="1.0" />
	<path
		stroke="#ffffff"
		stroke-opacity="0.9490196"
		d="M155,152h1zM140,162h1zM133,170h1zM407,171h1zM459,178h1zM124,187h1zM481,191h1zM44,196h1zM43,201h1zM116,214h1zM229,215h1zM39,217h1zM259,229h1zM35,233h1zM138,241h1zM422,241h1zM31,249h1zM289,262h1zM27,265h1zM23,281h1zM19,297h1zM15,320h1zM348,328h1zM242,335h1zM271,336h1zM238,351h1zM270,358h1zM275,378h1zM401,414h1zM93,420h1zM131,420h1zM369,420h1z"
		stroke-width="1.0" />
	<path
		stroke="#ffffff"
		stroke-opacity="0.15686275"
		d="M158,152h1zM274,153h1zM382,173h1zM356,300h1zM491,301h1zM168,323h1zM167,327h1zM21,376h1zM459,378h1z"
		stroke-width="1.0" />
	<path
		stroke="#ffffff"
		stroke-opacity="0.5647059"
		d="M61,154h1zM471,183h1zM120,201h1zM42,202h1zM112,233h1zM34,234h1zM281,390h1z"
		stroke-width="1.0" />
	<path
		stroke="#ffffff"
		stroke-opacity="0.6313726"
		d="M152,154h1zM335,194h1zM490,200h1zM243,217h1zM495,283h1z"
		stroke-width="1.0" />
	<path
		stroke="#ffffff"
		stroke-opacity="0.44313726"
		d="M212,156h1zM223,164h1zM134,170h1zM423,170h1zM346,187h1zM118,209h1zM107,253h1zM14,321h1zM467,367h1z"
		stroke-width="1.0" />
	<path
		stroke="#ffffff"
		stroke-opacity="0.6"
		d="M270,156h1zM225,165h1zM458,177h1zM354,183h1zM485,194h1zM162,285h1zM168,325h1zM92,327h1zM94,337h1zM181,409h1z"
		stroke-width="1.0" />
	<path
		stroke="#ffffff"
		stroke-opacity="0.18039216"
		d="M148,157h1zM115,222h1zM34,232h1zM409,238h1zM420,241h1zM373,248h1zM26,264h1zM17,300h1z"
		stroke-width="1.0" />
	<path
		stroke="#ffffff"
		stroke-opacity="0.21568628"
		d="M145,159h1zM139,237h1zM381,242h1zM149,282h1zM13,332h1zM463,373h1zM330,419h1zM103,422h1z"
		stroke-width="1.0" />
	<path
		stroke="#ffffff"
		stroke-opacity="0.5882353"
		d="M218,160h1zM50,177h1zM246,218h1zM23,278h1zM351,421h1z"
		stroke-width="1.0" />
	<path
		stroke="#ffffff"
		stroke-opacity="0.38039216"
		d="M262,162h1zM51,174h1zM137,241h1zM30,249h1zM425,256h1zM289,259h1zM26,265h1zM22,281h1zM349,328h1zM270,336h1zM276,382h1zM46,405h1zM369,421h1z"
		stroke-width="1.0" />
	<path
		stroke="#ffffff"
		stroke-opacity="0.38431373"
		d="M260,163h1zM234,168h1zM476,186h1zM285,275h1zM281,291h1zM18,297h1zM94,306h1zM395,347h1zM277,384h1zM27,386h1zM131,421h1z"
		stroke-width="1.0" />
	<path
		stroke="#ffffff"
		stroke-opacity="0.45882353"
		d="M139,164h1zM161,218h1zM159,219h1zM502,228h1zM425,247h1zM281,292h1zM453,384h1zM30,390h1zM144,419h1z"
		stroke-width="1.0" />
	<path
		stroke="#ffffff"
		stroke-opacity="0.45490196"
		d="M258,164h1zM293,247h1zM369,253h1zM421,273h1zM285,276h1zM479,344h1zM452,385h1zM94,421h1zM130,421h1zM345,421h1z"
		stroke-width="1.0" />
	<path
		stroke="#ffffff"
		stroke-opacity="0.60784316"
		d="M137,166h1zM236,168h1zM359,181h1zM501,223h1zM263,237h1zM264,243h1zM142,276h1zM418,285h1zM241,341h1zM26,384h1zM28,387h1zM352,421h1z"
		stroke-width="1.0" />
	<path
		stroke="#ffffff"
		stroke-opacity="0.39607844"
		d="M253,166h1zM424,170h1zM127,182h1zM502,227h1zM415,296h1zM353,312h1zM403,338h1zM100,345h1z"
		stroke-width="1.0" />
	<path
		stroke="#ffffff"
		stroke-opacity="0.10980392"
		d="M251,167h1zM388,172h1zM442,172h1zM242,216h1zM500,218h1zM367,258h1zM363,273h1zM420,275h1zM359,289h1zM355,305h1zM351,321h1zM13,327h1zM97,341h1zM157,347h1zM124,352h1zM134,352h1zM190,406h1zM58,412h1zM164,415h1zM80,419h1zM329,419h1zM341,421h1z"
		stroke-width="1.0" />
	<path
		stroke="#ffffff"
		stroke-opacity="0.3019608"
		d="M245,168h1zM435,171h1zM114,226h1zM503,237h1zM424,245h1zM283,283h1zM99,344h1zM25,383h1zM195,403h1zM423,406h1zM151,418h1z"
		stroke-width="1.0" />
	<path
		stroke="#ffffff"
		stroke-opacity="0.5019608"
		d="M411,170h1zM263,253h1zM284,280h1zM97,293h1zM490,303h1zM170,316h1zM92,322h1zM139,352h1zM409,412h1zM347,421h1z"
		stroke-width="1.0" />
	<path
		stroke="#ffffff"
		stroke-opacity="0.5176471"
		d="M419,170h1zM498,214h1zM377,244h1zM160,285h1zM241,342h1zM348,346h1zM149,350h1zM381,353h1zM149,418h1z"
		stroke-width="1.0" />
	<path
		stroke="#ffffff"
		stroke-opacity="0.1764706"
		d="M428,170h1zM475,185h1zM330,197h1zM313,213h1zM38,216h1zM263,236h1zM111,238h1zM500,265h1zM157,285h1zM14,318h1zM404,336h1zM114,351h1zM377,353h1zM447,390h1zM435,399h1zM102,422h1z"
		stroke-width="1.0" />
	<path
		stroke="#ffffff"
		stroke-opacity="0.63529414"
		d="M398,171h1zM338,192h1zM290,256h1zM143,277h1zM176,293h1zM92,319h1zM271,332h1zM371,354h1zM16,359h1zM470,362h1zM270,363h1z"
		stroke-width="1.0" />
	<path
		stroke="#ffffff"
		stroke-opacity="0.79607844"
		d="M400,171h1zM51,175h1zM475,186h1zM255,224h1zM177,290h1zM14,341h1zM399,415h1z"
		stroke-width="1.0" />
	<path
		stroke="#ffffff"
		stroke-opacity="0.93333334"
		d="M426,171h1zM51,176h1zM358,182h1zM353,184h1zM473,185h1zM47,187h1zM107,251h1zM366,258h1zM260,263h1zM103,267h1zM358,289h1zM176,294h1zM408,326h1zM240,343h1zM99,345h1zM58,411h1zM410,411h1z"
		stroke-width="1.0" />
	<path
		stroke="#ffffff"
		stroke-opacity="0.5803922"
		d="M433,171h1zM449,174h1zM240,216h1zM258,227h1zM35,230h1zM134,260h1zM270,337h1zM164,341h1zM208,395h1zM205,397h1zM51,408h1zM78,418h1zM97,421h1zM362,421h1z"
		stroke-width="1.0" />
	<path
		stroke="#ffffff"
		stroke-opacity="0.42352942"
		d="M390,172h1zM328,199h1zM119,205h1zM150,225h1zM361,280h1zM177,288h1zM173,304h1zM269,350h1zM269,352h1zM380,353h1zM230,373h1zM344,421h1z"
		stroke-width="1.0" />
	<path
		stroke="#ffffff"
		stroke-opacity="0.6745098"
		d="M386,173h1zM146,229h1zM402,237h1zM414,238h1zM33,239h1zM109,244h1zM105,260h1zM251,301h1zM112,351h1zM367,354h1zM374,354h1zM273,374h1zM99,421h1z"
		stroke-width="1.0" />
	<path
		stroke="#ffffff"
		stroke-opacity="0.78039217"
		d="M443,173h1zM382,174h1zM330,198h1zM301,231h1zM104,264h1zM411,313h1zM92,329h1zM213,391h1z"
		stroke-width="1.0" />
	<path
		stroke="#ffffff"
		stroke-opacity="0.61960787"
		d="M444,173h1zM49,180h1zM343,189h1zM144,231h1zM163,285h1zM354,306h1zM172,309h1zM353,311h1zM349,327h1zM14,346h1zM289,399h1zM311,413h1zM382,419h1zM98,421h1zM126,421h1z"
		stroke-width="1.0" />
	<path
		stroke="#ffffff"
		stroke-opacity="0.17254902"
		d="M131,175h1zM334,194h1zM42,200h1zM245,217h1zM249,219h1zM374,247h1zM107,254h1zM103,270h1zM420,276h1zM282,286h1zM175,295h1zM94,335h1zM13,341h1zM479,345h1zM352,350h1zM143,351h1z"
		stroke-width="1.0" />
	<path
		stroke="#ffffff"
		stroke-opacity="0.37254903"
		d="M456,176h1zM339,191h1zM42,201h1zM117,214h1zM229,214h1zM38,217h1zM269,357h1zM150,418h1zM93,421h1z"
		stroke-width="1.0" />
	<path
		stroke="#ffffff"
		stroke-opacity="0.7372549"
		d="M364,179h1zM357,182h1zM304,226h1zM111,236h1zM139,238h1zM493,290h1zM14,327h1zM364,354h1zM464,371h1zM40,400h1zM298,406h1z"
		stroke-width="1.0" />
	<path
		stroke="#ffffff"
		stroke-opacity="0.4745098"
		d="M128,180h1zM41,206h1zM502,253h1zM136,267h1zM248,314h1zM273,324h1zM244,330h1zM359,353h1zM465,370h1zM275,380h1zM393,417h1z"
		stroke-width="1.0" />
	<path
		stroke="#ffffff"
		stroke-opacity="0.31764707"
		d="M358,181h1zM41,205h1zM230,214h1zM301,230h1zM262,233h1zM503,238h1zM264,241h1zM425,253h1zM135,265h1zM23,277h1zM154,284h1zM97,294h1zM16,307h1zM347,343h1zM14,350h1zM272,372h1zM278,386h1zM297,406h1zM167,414h1zM389,418h1z"
		stroke-width="1.0" />
	<path
		stroke="#ffffff"
		stroke-opacity="0.67058825"
		d="M45,192h1zM41,207h1zM118,208h1zM37,223h1zM141,235h1zM502,251h1zM501,258h1zM365,262h1zM259,269h1zM101,276h1zM360,283h1zM255,285h1zM382,353h1zM446,390h1zM162,415h1zM327,418h1zM357,421h1z"
		stroke-width="1.0" />
	<path
		stroke="#ffffff"
		stroke-opacity="0.105882354"
		d="M486,194h1zM263,235h1zM398,238h1zM502,257h1zM147,281h1zM490,306h1zM488,313h1zM147,350h1zM227,378h1zM213,392h1zM177,411h1zM385,419h1z"
		stroke-width="1.0" />
	<path
		stroke="#ffffff"
		stroke-opacity="0.28627452"
		d="M43,197h1zM329,198h1zM503,236h1zM394,238h1zM177,287h1zM494,289h1zM94,307h1zM243,334h1zM107,349h1zM239,350h1zM15,356h1zM471,361h1zM280,389h1zM204,398h1zM417,409h1zM109,422h3z"
		stroke-width="1.0" />
	<path
		stroke="#ffffff"
		stroke-opacity="0.64705884"
		d="M121,197h1zM264,244h1zM292,250h1zM155,284h1zM93,310h1zM349,326h1zM93,334h1zM481,338h1zM394,348h1zM221,384h1zM431,401h1zM67,415h1zM319,416h1z"
		stroke-width="1.0" />
	<path
		stroke="#ffffff"
		stroke-opacity="0.57254905"
		d="M493,204h1zM116,217h1zM262,234h1zM15,314h1zM487,315h1zM350,421h1z"
		stroke-width="1.0" />
	<path
		stroke="#ffffff"
		stroke-opacity="0.8627451"
		d="M41,208h1zM37,224h1zM152,224h1zM363,270h1zM400,343h1zM469,363h1zM225,379h1zM307,411h1zM118,421h1z"
		stroke-width="1.0" />
	<path
		stroke="#ffffff"
		stroke-opacity="0.2901961"
		d="M498,213h1zM169,215h1zM411,238h1zM261,263h1zM258,275h1zM417,287h1zM241,343h1zM207,396h1zM63,414h1z"
		stroke-width="1.0" />
	<path
		stroke="#ffffff"
		stroke-opacity="0.65882355"
		d="M167,216h1zM306,223h1zM106,256h1zM497,275h1zM97,292h1zM166,333h1zM274,377h1zM125,421h1z"
		stroke-width="1.0" />
	<path
		stroke="#ffffff"
		stroke-opacity="0.30980393"
		d="M499,216h1zM252,221h1zM264,248h1zM262,259h1zM27,261h1zM163,415h1z"
		stroke-width="1.0" />
	<path
		stroke="#ffffff"
		stroke-opacity="0.73333335"
		d="M309,219h1zM398,237h1zM107,252h1zM103,268h1zM282,391h1z"
		stroke-width="1.0" />
	<path
		stroke="#ffffff"
		stroke-opacity="0.58431375"
		d="M391,238h1zM31,246h1zM264,246h1zM27,262h1zM92,320h1zM388,351h1zM473,357h1zM444,392h1zM59,412h1z"
		stroke-width="1.0" />
	<path
		stroke="#ffffff"
		stroke-opacity="0.43137255"
		d="M110,241h1zM106,257h1zM496,280h1zM175,296h1zM95,301h1zM193,404h1zM191,405h1zM326,418h1z"
		stroke-width="1.0" />
	<path
		stroke="#ffffff"
		stroke-opacity="0.41568628"
		d="M502,254h1zM290,255h1zM498,272h1zM171,312h1zM269,348h1zM225,380h1z"
		stroke-width="1.0" />
</svg>